<svg xmlns="http://www.w3.org/2000/svg" viewBox="0 0 1000 100" width="1000" height="100" role="img" aria-label="Open to talk about developer tooling, static analysis and anything AI-adjacent - linkedin.com/in/jurreandenys"><style>svg{--canvas:#0d1117;--subtle:#161B22;--border:#30363D;--fg:#F0F6FC;--muted:#9198A1;--h0:#191D24;--h1:#4A3A0F;--h2:#B8721A;--h3:#FF5831;--h4:#FF95E4}.rise{animation:rise .55s cubic-bezier(.2,.7,.2,1) both}@keyframes rise{from{opacity:0;transform:translateY(7px)}to{opacity:1;transform:none}}.bar{animation:grow 1s cubic-bezier(.2,.75,.2,1) both}@keyframes grow{from{transform:scaleX(0)}to{transform:scaleX(1)}}.seg{animation:grow .7s cubic-bezier(.2,.75,.2,1) both}.cell{animation:pop .42s cubic-bezier(.3,1.5,.5,1) both}@keyframes pop{from{opacity:0;transform:scale(.35)}to{opacity:1;transform:scale(1)}}.pulse{animation:pulse 2.4s ease-in-out infinite}@keyframes pulse{0%,100%{opacity:1}50%{opacity:.4}}@media (prefers-reduced-motion:reduce){.rise,.bar,.cell,.seg,.pulse{animation:none;opacity:1;transform:none}}</style><path d="M0.5,0.5 L979.5,0.5 L999.5,20.5 L999.5,99.5 L20.5,99.5 L0.5,79.5 Z" fill="var(--canvas)" stroke="var(--border)"/><path d="M979.5,0.5 L999.5,0.5 L999.5,20.5 Z" fill="#FFE066"/><rect x="8.0" y="9" width="284.0" height="4" rx="0" fill="#4C8DFF" class="seg" style="transform-origin:8.0px 0;animation-delay:0.00s"/><rect x="296.0" y="9" width="149.6" height="4" rx="0" fill="#3DE8A0" class="seg" style="transform-origin:296.0px 0;animation-delay:0.09s"/><rect x="449.6" y="9" width="226.4" height="4" rx="0" fill="#FF7355" class="seg" style="transform-origin:449.6px 0;animation-delay:0.18s"/><rect x="680.0" y="9" width="120.8" height="4" rx="0" fill="#FFE066" class="seg" style="transform-origin:680.0px 0;animation-delay:0.27s"/><rect x="804.8" y="9" width="159.2" height="4" rx="0" fill="#FF95E4" class="seg" style="transform-origin:804.8px 0;animation-delay:0.36s"/><circle cx="38" cy="58" r="5" fill="#3DE8A0" class="pulse"/><text x="56" y="63" font-family="-apple-system,BlinkMacSystemFont,'Segoe UI','Noto Sans',Helvetica,Arial,sans-serif" font-size="13.5" font-weight="400" fill="var(--fg)" text-anchor="start">Open to talk about developer tooling, static analysis, and anything AI-adjacent.</text><rect x="28.0" y="80" width="4.0" height="13" fill="var(--muted)"/><rect x="33.2" y="80" width="2.9" height="13" fill="var(--muted)"/><rect x="37.5" y="80" width="1.2" height="13" fill="var(--muted)"/><rect x="39.9" y="80" width="2.1" height="13" fill="var(--muted)"/><rect x="43.2" y="80" width="2.9" height="13" fill="var(--muted)"/><rect x="47.4" y="80" width="2.9" height="13" fill="var(--muted)"/><rect x="51.6" y="80" width="2.9" height="13" fill="var(--muted)"/><rect x="55.8" y="80" width="1.2" height="13" fill="var(--muted)"/><rect x="58.2" y="80" width="2.1" height="13" fill="var(--muted)"/><rect x="61.6" y="80" width="2.9" height="13" fill="var(--muted)"/><rect x="65.8" y="80" width="1.2" height="13" fill="var(--muted)"/><rect x="68.2" y="80" width="2.1" height="13" fill="var(--muted)"/><rect x="71.6" y="80" width="2.9" height="13" fill="var(--muted)"/><rect x="75.8" y="80" width="2.1" height="13" fill="var(--muted)"/><rect x="79.1" y="80" width="2.1" height="13" fill="var(--muted)"/><rect x="82.5" y="80" width="4.0" height="13" fill="var(--muted)"/><rect x="87.7" y="80" width="2.9" height="13" fill="var(--muted)"/><rect x="91.9" y="80" width="2.1" height="13" fill="var(--muted)"/><g transform="translate(756,50) scale(1.00000)" fill="#4C8DFF"><path d="m7.775 3.275 1.25-1.25a3.5 3.5 0 1 1 4.95 4.95l-2.5 2.5a3.5 3.5 0 0 1-4.95 0 .751.751 0 0 1 .018-1.042.751.751 0 0 1 1.042-.018 1.998 1.998 0 0 0 2.83 0l2.5-2.5a2.002 2.002 0 0 0-2.83-2.83l-1.25 1.25a.751.751 0 0 1-1.042-.018.751.751 0 0 1-.018-1.042Zm-4.69 9.64a1.998 1.998 0 0 0 2.83 0l1.25-1.25a.751.751 0 0 1 1.042.018.751.751 0 0 1 .018 1.042l-1.25 1.25a3.5 3.5 0 1 1-4.95-4.95l2.5-2.5a3.5 3.5 0 0 1 4.95 0 .751.751 0 0 1-.018 1.042.751.751 0 0 1-1.042.018 1.998 1.998 0 0 0-2.83 0l-2.5 2.5a1.998 1.998 0 0 0 0 2.83Z"/></g><text x="780" y="63" font-family="-apple-system,BlinkMacSystemFont,'Segoe UI','Noto Sans',Helvetica,Arial,sans-serif" font-size="13" font-weight="600" fill="#4C8DFF" text-anchor="start">linkedin.com/in/jurreandenys</text></svg>
