<svg xmlns="http://www.w3.org/2000/svg" viewBox="0 0 1000 252" width="1000" height="252" role="img" aria-label="RelativelyUnknown - data and AI engineering. I build tools that sit close to the code: static analysis, language grammars, and the editor surfaces around them. TypeScript, Python and Rust. 686 commits in the last year across 6 public repositories, on 89 days, peaking at 60 in one day."><style>svg{--canvas:#0d1117;--subtle:#161B22;--border:#30363D;--fg:#F0F6FC;--muted:#9198A1;--h0:#191D24;--h1:#4A3A0F;--h2:#B8721A;--h3:#FF5831;--h4:#FF95E4}.rise{animation:rise .55s cubic-bezier(.2,.7,.2,1) both}@keyframes rise{from{opacity:0;transform:translateY(7px)}to{opacity:1;transform:none}}.bar{animation:grow 1s cubic-bezier(.2,.75,.2,1) both}@keyframes grow{from{transform:scaleX(0)}to{transform:scaleX(1)}}.seg{animation:grow .7s cubic-bezier(.2,.75,.2,1) both}.cell{animation:pop .42s cubic-bezier(.3,1.5,.5,1) both}@keyframes pop{from{opacity:0;transform:scale(.35)}to{opacity:1;transform:scale(1)}}.pulse{animation:pulse 2.4s ease-in-out infinite}@keyframes pulse{0%,100%{opacity:1}50%{opacity:.4}}@media (prefers-reduced-motion:reduce){.rise,.bar,.cell,.seg,.pulse{animation:none;opacity:1;transform:none}}</style><path d="M0.5,0.5 L973.5,0.5 L999.5,26.5 L999.5,251.5 L26.5,251.5 L0.5,225.5 Z" fill="var(--canvas)" stroke="var(--border)"/><path d="M973.5,0.5 L999.5,0.5 L999.5,26.5 Z" fill="#4C8DFF"/><g class="rise"><text x="28" y="24" font-family="ui-monospace,SFMono-Regular,'SF Mono',Menlo,Consolas,'Liberation Mono',monospace" font-size="10.5" font-weight="600" fill="var(--muted)" text-anchor="start" letter-spacing="0.06em">DEVELOPER PROFILE</text></g><g class="rise" style="animation-delay:.05s"><text x="28" y="60" font-family="-apple-system,BlinkMacSystemFont,'Segoe UI','Noto Sans',Helvetica,Arial,sans-serif" font-size="30" font-weight="800" fill="var(--fg)" text-anchor="start">RelativelyUnknown</text></g><g class="rise" style="animation-delay:.09s"><text x="28" y="85" font-family="-apple-system,BlinkMacSystemFont,'Segoe UI','Noto Sans',Helvetica,Arial,sans-serif" font-size="14.5" font-weight="400" fill="var(--muted)" text-anchor="start">Data and AI engineering</text></g><rect x="28.0" y="99" width="86.0" height="6" rx="3.0" fill="#4C8DFF" class="seg" style="transform-origin:28.0px 0;animation-delay:0.16s"/><rect x="118.0" y="99" width="44.0" height="6" rx="3.0" fill="#3DE8A0" class="seg" style="transform-origin:118.0px 0;animation-delay:0.25s"/><rect x="166.0" y="99" width="68.0" height="6" rx="3.0" fill="#FF7355" class="seg" style="transform-origin:166.0px 0;animation-delay:0.34s"/><rect x="238.0" y="99" width="35.0" height="6" rx="3.0" fill="#FFE066" class="seg" style="transform-origin:238.0px 0;animation-delay:0.43s"/><rect x="277.0" y="99" width="47.0" height="6" rx="3.0" fill="#FF95E4" class="seg" style="transform-origin:277.0px 0;animation-delay:0.52s"/><g class="rise" style="animation-delay:.15s"><text x="28" y="133" font-family="-apple-system,BlinkMacSystemFont,'Segoe UI','Noto Sans',Helvetica,Arial,sans-serif" font-size="14" font-weight="400" fill="var(--fg)" text-anchor="start">I build tools that sit close to the code - static analysis,</text><text x="28" y="155" font-family="-apple-system,BlinkMacSystemFont,'Segoe UI','Noto Sans',Helvetica,Arial,sans-serif" font-size="14" font-weight="400" fill="var(--fg)" text-anchor="start">language grammars, and the editor surfaces around them.</text></g><g class="rise" style="animation-delay:0.22s"><g transform="translate(28,173) scale(0.87500)" fill="#4C8DFF"><path d="m11.28 3.22 4.25 4.25a.75.75 0 0 1 0 1.06l-4.25 4.25a.749.749 0 0 1-1.275-.326.749.749 0 0 1 .215-.734L13.94 8l-3.72-3.72a.749.749 0 0 1 .326-1.275.749.749 0 0 1 .734.215Zm-6.56 0a.751.751 0 0 1 1.042.018.751.751 0 0 1 .018 1.042L2.06 8l3.72 3.72a.749.749 0 0 1-.326 1.275.749.749 0 0 1-.734-.215L.47 8.53a.75.75 0 0 1 0-1.06Z"/></g><text x="50" y="185" font-family="ui-monospace,SFMono-Regular,'SF Mono',Menlo,Consolas,'Liberation Mono',monospace" font-size="10.5" font-weight="600" fill="var(--muted)" text-anchor="start" letter-spacing="0.06em">STACK — TYPESCRIPT · PYTHON · RUST</text></g><g class="rise" style="animation-delay:0.28s"><g transform="translate(28,197) scale(0.87500)" fill="#3DE8A0"><path d="M2 2.5A2.5 2.5 0 0 1 4.5 0h8.75a.75.75 0 0 1 .75.75v12.5a.75.75 0 0 1-.75.75h-2.5a.75.75 0 0 1 0-1.5h1.75v-2h-8a1 1 0 0 0-.714 1.7.75.75 0 1 1-1.072 1.05A2.495 2.495 0 0 1 2 11.5Zm10.5-1h-8a1 1 0 0 0-1 1v6.708A2.486 2.486 0 0 1 4.5 9h8ZM5 12.25a.25.25 0 0 1 .25-.25h3.5a.25.25 0 0 1 .25.25v3.25a.25.25 0 0 1-.4.2l-1.45-1.087a.249.249 0 0 0-.3 0L5.4 15.7a.25.25 0 0 1-.4-.2Z"/></g><text x="50" y="209" font-family="ui-monospace,SFMono-Regular,'SF Mono',Menlo,Consolas,'Liberation Mono',monospace" font-size="10.5" font-weight="600" fill="var(--muted)" text-anchor="start" letter-spacing="0.06em">6 PUBLIC REPOSITORIES</text></g><line x1="596" y1="62" x2="972" y2="62" stroke="var(--border)" stroke-width="1"/><g class="rise" style="animation-delay:0.30s"><rect x="596" y="62" width="4" height="52" rx="0" fill="#4C8DFF"/><text x="620" y="95" font-family="ui-monospace,SFMono-Regular,'SF Mono',Menlo,Consolas,'Liberation Mono',monospace" font-size="24" font-weight="700" fill="var(--fg)" text-anchor="start">686</text><text x="972" y="95" font-family="ui-monospace,SFMono-Regular,'SF Mono',Menlo,Consolas,'Liberation Mono',monospace" font-size="10" font-weight="600" fill="var(--muted)" text-anchor="end" letter-spacing="0.06em">COMMITS · LAST 365 DAYS</text></g><line x1="596" y1="114" x2="972" y2="114" stroke="var(--border)" stroke-width="1"/><g class="rise" style="animation-delay:0.38s"><rect x="596" y="114" width="4" height="52" rx="0" fill="#3DE8A0"/><text x="620" y="147" font-family="ui-monospace,SFMono-Regular,'SF Mono',Menlo,Consolas,'Liberation Mono',monospace" font-size="24" font-weight="700" fill="var(--fg)" text-anchor="start">89</text><text x="972" y="147" font-family="ui-monospace,SFMono-Regular,'SF Mono',Menlo,Consolas,'Liberation Mono',monospace" font-size="10" font-weight="600" fill="var(--muted)" text-anchor="end" letter-spacing="0.06em">DAYS WITH A COMMIT</text></g><line x1="596" y1="166" x2="972" y2="166" stroke="var(--border)" stroke-width="1"/><g class="rise" style="animation-delay:0.46s"><rect x="596" y="166" width="4" height="52" rx="0" fill="#FF7355"/><text x="620" y="199" font-family="ui-monospace,SFMono-Regular,'SF Mono',Menlo,Consolas,'Liberation Mono',monospace" font-size="24" font-weight="700" fill="var(--fg)" text-anchor="start">60</text><text x="972" y="199" font-family="ui-monospace,SFMono-Regular,'SF Mono',Menlo,Consolas,'Liberation Mono',monospace" font-size="10" font-weight="600" fill="var(--muted)" text-anchor="end" letter-spacing="0.06em">PEAK IN ONE DAY</text></g><line x1="596" y1="218" x2="972" y2="218" stroke="var(--border)" stroke-width="1"/></svg>
