<svg xmlns="http://www.w3.org/2000/svg" viewBox="0 0 333.33 190" width="333.33" height="190" role="img" aria-label="Tree-sitter-sql-polyglot. SQL grammar for tree-sitter. JavaScript 62.2%, C 28.1%, Python 4.4%. 212 commits, past year."><style>svg{--canvas:#0d1117;--subtle:#161b22;--border:#30363d;--fg:#e6edf3;--muted:#9198a1;--accent:#3fb950;--link:#4493f8}.rise{animation:rise .55s cubic-bezier(.2,.7,.2,1) both}@keyframes rise{from{opacity:0;transform:translateY(7px)}to{opacity:1;transform:none}}.bar{animation:grow 1s cubic-bezier(.2,.75,.2,1) both}@keyframes grow{from{transform:scaleX(0)}to{transform:scaleX(1)}}.pulse{animation:pulse 2.4s ease-in-out infinite}@keyframes pulse{0%,100%{opacity:1}50%{opacity:.45}}@media (prefers-reduced-motion:reduce){.rise,.bar,.pulse{animation:none;opacity:1;transform:none}}</style><g transform="translate(0.000,0)"><rect x="0.5" y="0.5" width="321.67" height="189" rx="6" fill="var(--canvas)" stroke="var(--border)" stroke-width="1"/><g transform="translate(20,26) scale(0.93750)" fill="var(--muted)"><path d="M2 2.5A2.5 2.5 0 0 1 4.5 0h8.75a.75.75 0 0 1 .75.75v12.5a.75.75 0 0 1-.75.75h-2.5a.75.75 0 0 1 0-1.5h1.75v-2h-8a1 1 0 0 0-.714 1.7.75.75 0 1 1-1.072 1.05A2.495 2.495 0 0 1 2 11.5Zm10.5-1h-8a1 1 0 0 0-1 1v6.708A2.486 2.486 0 0 1 4.5 9h8ZM5 12.25a.25.25 0 0 1 .25-.25h3.5a.25.25 0 0 1 .25.25v3.25a.25.25 0 0 1-.4.2l-1.45-1.087a.249.249 0 0 0-.3 0L5.4 15.7a.25.25 0 0 1-.4-.2Z"/></g><text x="44" y="38" font-family="-apple-system,BlinkMacSystemFont,'Segoe UI','Noto Sans',Helvetica,Arial,sans-serif" font-size="13" font-weight="600" fill="var(--link)" text-anchor="start">Tree-sitter-sql-polyglot</text><rect x="246.67" y="24" width="58" height="19" rx="9" fill="none" stroke="var(--border)" stroke-width="1"/><text x="275.67" y="37" font-family="-apple-system,BlinkMacSystemFont,'Segoe UI','Noto Sans',Helvetica,Arial,sans-serif" font-size="10.5" font-weight="400" fill="var(--muted)" text-anchor="middle">Public</text><text x="20" y="66" font-family="-apple-system,BlinkMacSystemFont,'Segoe UI','Noto Sans',Helvetica,Arial,sans-serif" font-size="11.5" font-weight="400" fill="var(--muted)" text-anchor="start">SQL grammar for tree-sitter.</text><g transform="translate(20,106)"><rect x="0.0" y="0" width="180.0" height="8" rx="2" fill="#f1e05a" class="bar" style="transform-origin:0.0px 0;animation-delay:0.25s"/><rect x="182.0" y="0" width="80.2" height="8" rx="2" fill="#555555" class="bar" style="transform-origin:182.0px 0;animation-delay:0.33s"/><rect x="264.2" y="0" width="10.9" height="8" rx="2" fill="#3572A5" class="bar" style="transform-origin:264.2px 0;animation-delay:0.41s"/><rect x="277.1" y="0" width="3.6" height="8" rx="2" fill="#1e4aec" class="bar" style="transform-origin:277.1px 0;animation-delay:0.49s"/></g><g class="rise" style="animation-delay:0.40s"><circle cx="24.0" cy="130" r="4" fill="#f1e05a"/><text x="32.0" y="134" font-family="-apple-system,BlinkMacSystemFont,'Segoe UI','Noto Sans',Helvetica,Arial,sans-serif" font-size="9.5" font-weight="400" fill="var(--muted)" text-anchor="start">JavaScript 62.2%</text></g><g class="rise" style="animation-delay:0.46s"><circle cx="128.8" cy="130" r="4" fill="#555555"/><text x="136.8" y="134" font-family="-apple-system,BlinkMacSystemFont,'Segoe UI','Noto Sans',Helvetica,Arial,sans-serif" font-size="9.5" font-weight="400" fill="var(--muted)" text-anchor="start">C 28.1%</text></g><g class="rise" style="animation-delay:0.52s"><circle cx="191.4" cy="130" r="4" fill="#3572A5"/><text x="199.4" y="134" font-family="-apple-system,BlinkMacSystemFont,'Segoe UI','Noto Sans',Helvetica,Arial,sans-serif" font-size="9.5" font-weight="400" fill="var(--muted)" text-anchor="start">Python 4.4%</text></g><g transform="translate(20,156) scale(0.75000)" fill="var(--muted)"><path d="m.427 1.927 1.215 1.215a8.002 8.002 0 1 1-1.6 5.685.75.75 0 1 1 1.493-.154 6.5 6.5 0 1 0 1.18-4.458l1.358 1.358A.25.25 0 0 1 3.896 6H.25A.25.25 0 0 1 0 5.75V2.104a.25.25 0 0 1 .427-.177ZM7.75 4a.75.75 0 0 1 .75.75v2.992l2.028.812a.75.75 0 0 1-.557 1.392l-2.5-1A.751.751 0 0 1 7 8.25v-3.5A.75.75 0 0 1 7.75 4Z"/></g><text x="36" y="166" font-family="-apple-system,BlinkMacSystemFont,'Segoe UI','Noto Sans',Helvetica,Arial,sans-serif" font-size="10.5" font-weight="400" fill="var(--muted)" text-anchor="start">212 commits, past year</text></g></svg>
