<svg xmlns="http://www.w3.org/2000/svg" viewBox="0 0 326 188" width="326" height="188" role="img" aria-label="tree-sitter-sql-extended - A tree-sitter SQL grammar: an ANSI base plus 22 compiled dialects. JavaScript 89.2%, Python 5.9%, Scheme 2.9%, C 1.5%. 199 commits by me."><style>svg{--canvas:#0d1117;--subtle:#161B22;--border:#30363D;--fg:#F0F6FC;--muted:#9198A1;--h0:#191D24;--h1:#4A3A0F;--h2:#B8721A;--h3:#FF5831;--h4:#FF95E4}.rise{animation:rise .55s cubic-bezier(.2,.7,.2,1) both}@keyframes rise{from{opacity:0;transform:translateY(7px)}to{opacity:1;transform:none}}.bar{animation:grow 1s cubic-bezier(.2,.75,.2,1) both}@keyframes grow{from{transform:scaleX(0)}to{transform:scaleX(1)}}.seg{animation:grow .7s cubic-bezier(.2,.75,.2,1) both}.cell{animation:pop .42s cubic-bezier(.3,1.5,.5,1) both}@keyframes pop{from{opacity:0;transform:scale(.35)}to{opacity:1;transform:scale(1)}}.pulse{animation:pulse 2.4s ease-in-out infinite}@keyframes pulse{0%,100%{opacity:1}50%{opacity:.4}}@media (prefers-reduced-motion:reduce){.rise,.bar,.cell,.seg,.pulse{animation:none;opacity:1;transform:none}}</style><rect x="0.5" y="0.5" width="325" height="187" rx="8" fill="var(--canvas)" stroke="var(--border)" stroke-width="1"/><rect x="8" y="0.5" width="310" height="4" rx="2" fill="#FF7355"/><g transform="translate(20,29) scale(0.93750)" fill="#FF7355"><path d="M2 2.5A2.5 2.5 0 0 1 4.5 0h8.75a.75.75 0 0 1 .75.75v12.5a.75.75 0 0 1-.75.75h-2.5a.75.75 0 0 1 0-1.5h1.75v-2h-8a1 1 0 0 0-.714 1.7.75.75 0 1 1-1.072 1.05A2.495 2.495 0 0 1 2 11.5Zm10.5-1h-8a1 1 0 0 0-1 1v6.708A2.486 2.486 0 0 1 4.5 9h8ZM5 12.25a.25.25 0 0 1 .25-.25h3.5a.25.25 0 0 1 .25.25v3.25a.25.25 0 0 1-.4.2l-1.45-1.087a.249.249 0 0 0-.3 0L5.4 15.7a.25.25 0 0 1-.4-.2Z"/></g><text x="44" y="41" font-family="-apple-system,BlinkMacSystemFont,'Segoe UI','Noto Sans',Helvetica,Arial,sans-serif" font-size="13" font-weight="600" fill="var(--fg)" text-anchor="start">tree-sitter-sql-extended</text><rect x="250" y="27" width="58" height="19" rx="10" fill="none" stroke="var(--border)" stroke-width="1"/><text x="279" y="40" font-family="-apple-system,BlinkMacSystemFont,'Segoe UI','Noto Sans',Helvetica,Arial,sans-serif" font-size="10.5" font-weight="400" fill="var(--muted)" text-anchor="middle">Public</text><text x="20" y="72" font-family="-apple-system,BlinkMacSystemFont,'Segoe UI','Noto Sans',Helvetica,Arial,sans-serif" font-size="11.5" font-weight="400" fill="var(--muted)" text-anchor="start">A tree-sitter SQL grammar: an ANSI base</text><text x="20" y="89" font-family="-apple-system,BlinkMacSystemFont,'Segoe UI','Noto Sans',Helvetica,Arial,sans-serif" font-size="11.5" font-weight="400" fill="var(--muted)" text-anchor="start">plus 22 compiled dialects.</text><g transform="translate(20,124)"><rect x="0.0" y="0" width="254.4" height="9" rx="4.5" fill="#f1e05a" class="bar" style="transform-origin:0.0px 0;animation-delay:0.25s"/><rect x="256.4" y="0" width="15.0" height="9" rx="4.5" fill="#3572A5" class="bar" style="transform-origin:256.4px 0;animation-delay:0.35s"/><rect x="273.4" y="0" width="6.3" height="9" rx="4.5" fill="#1e4aec" class="bar" style="transform-origin:273.4px 0;animation-delay:0.45s"/><rect x="281.7" y="0" width="2.3" height="9" rx="4.5" fill="#555555" class="bar" style="transform-origin:281.7px 0;animation-delay:0.55s"/></g><g class="rise" style="animation-delay:0.40s"><circle cx="24" cy="156" r="4.5" fill="#f1e05a"/><text x="34" y="160" font-family="-apple-system,BlinkMacSystemFont,'Segoe UI','Noto Sans',Helvetica,Arial,sans-serif" font-size="10" font-weight="400" fill="var(--muted)" text-anchor="start">JavaScript 89.2%</text></g><g class="rise" style="animation-delay:0.46s"><circle cx="122" cy="156" r="4.5" fill="#3572A5"/><text x="132" y="160" font-family="-apple-system,BlinkMacSystemFont,'Segoe UI','Noto Sans',Helvetica,Arial,sans-serif" font-size="10" font-weight="400" fill="var(--muted)" text-anchor="start">Python 5.9%</text></g><g class="rise" style="animation-delay:0.52s"><circle cx="220" cy="156" r="4.5" fill="#1e4aec"/><text x="230" y="160" font-family="-apple-system,BlinkMacSystemFont,'Segoe UI','Noto Sans',Helvetica,Arial,sans-serif" font-size="10" font-weight="400" fill="var(--muted)" text-anchor="start">Scheme 2.9%</text></g><g transform="translate(20,170) scale(0.75000)" fill="var(--muted)"><path d="m.427 1.927 1.215 1.215a8.002 8.002 0 1 1-1.6 5.685.75.75 0 1 1 1.493-.154 6.5 6.5 0 1 0 1.18-4.458l1.358 1.358A.25.25 0 0 1 3.896 6H.25A.25.25 0 0 1 0 5.75V2.104a.25.25 0 0 1 .427-.177ZM7.75 4a.75.75 0 0 1 .75.75v2.992l2.028.812a.75.75 0 0 1-.557 1.392l-2.5-1A.751.751 0 0 1 7 8.25v-3.5A.75.75 0 0 1 7.75 4Z"/></g><text x="36" y="180" font-family="-apple-system,BlinkMacSystemFont,'Segoe UI','Noto Sans',Helvetica,Arial,sans-serif" font-size="10.5" font-weight="400" fill="var(--muted)" text-anchor="start">199 commits by me</text></svg>
