<svg xmlns="http://www.w3.org/2000/svg" viewBox="0 0 1000 460" width="1000" height="460" role="img" aria-label="Commit flow: 703 commits in the past year, from repo to language, sized by commits. Tree-sitter-sql-polyglot 212, burnt 207, Mallard 129, Hobby-SelfHostedHytaleServer 87, Jepa_Experiments 62, Other repos 6, TypeScript 195, Python 169, JavaScript 137, Rust 132, C 61, Other languages 9."><style>svg{--canvas:#ffffff;--subtle:#f6f8fa;--border:#d0d7de;--fg:#1f2328;--muted:#59636e;--accent:#1a7f37;--link:#0969da}.rise{animation:rise .55s cubic-bezier(.2,.7,.2,1) both}@keyframes rise{from{opacity:0;transform:translateY(7px)}to{opacity:1;transform:none}}.bar{animation:grow 1s cubic-bezier(.2,.75,.2,1) both}@keyframes grow{from{transform:scaleX(0)}to{transform:scaleX(1)}}.pulse{animation:pulse 2.4s ease-in-out infinite}@keyframes pulse{0%,100%{opacity:1}50%{opacity:.45}}@media (prefers-reduced-motion:reduce){.rise,.bar,.pulse{animation:none;opacity:1;transform:none}}</style><defs><linearGradient id="f6" gradientUnits="userSpaceOnUse" x1="497.0" x2="866.0"><stop offset="0" stop-color="#8250df"/><stop offset="1" stop-color="#3572A5"/></linearGradient><linearGradient id="f7" gradientUnits="userSpaceOnUse" x1="497.0" x2="866.0"><stop offset="0" stop-color="#8250df"/><stop offset="1" stop-color="#f1e05a"/></linearGradient><linearGradient id="f8" gradientUnits="userSpaceOnUse" x1="497.0" x2="866.0"><stop offset="0" stop-color="#8250df"/><stop offset="1" stop-color="#555555"/></linearGradient><linearGradient id="f9" gradientUnits="userSpaceOnUse" x1="497.0" x2="866.0"><stop offset="0" stop-color="#8250df"/><stop offset="1" stop-color="#656d76"/></linearGradient><linearGradient id="f10" gradientUnits="userSpaceOnUse" x1="497.0" x2="866.0"><stop offset="0" stop-color="#1a7f37"/><stop offset="1" stop-color="#3572A5"/></linearGradient><linearGradient id="f11" gradientUnits="userSpaceOnUse" x1="497.0" x2="866.0"><stop offset="0" stop-color="#1a7f37"/><stop offset="1" stop-color="#dea584"/></linearGradient><linearGradient id="f12" gradientUnits="userSpaceOnUse" x1="497.0" x2="866.0"><stop offset="0" stop-color="#0969da"/><stop offset="1" stop-color="#3178c6"/></linearGradient><linearGradient id="f13" gradientUnits="userSpaceOnUse" x1="497.0" x2="866.0"><stop offset="0" stop-color="#0969da"/><stop offset="1" stop-color="#3572A5"/></linearGradient><linearGradient id="f14" gradientUnits="userSpaceOnUse" x1="497.0" x2="866.0"><stop offset="0" stop-color="#0969da"/><stop offset="1" stop-color="#f1e05a"/></linearGradient><linearGradient id="f15" gradientUnits="userSpaceOnUse" x1="497.0" x2="866.0"><stop offset="0" stop-color="#bc4c00"/><stop offset="1" stop-color="#3178c6"/></linearGradient><linearGradient id="f16" gradientUnits="userSpaceOnUse" x1="497.0" x2="866.0"><stop offset="0" stop-color="#bc4c00"/><stop offset="1" stop-color="#656d76"/></linearGradient><linearGradient id="f17" gradientUnits="userSpaceOnUse" x1="497.0" x2="866.0"><stop offset="0" stop-color="#bf3989"/><stop offset="1" stop-color="#3572A5"/></linearGradient><linearGradient id="f18" gradientUnits="userSpaceOnUse" x1="497.0" x2="866.0"><stop offset="0" stop-color="#656d76"/><stop offset="1" stop-color="#3178c6"/></linearGradient><linearGradient id="f19" gradientUnits="userSpaceOnUse" x1="497.0" x2="866.0"><stop offset="0" stop-color="#656d76"/><stop offset="1" stop-color="#3572A5"/></linearGradient></defs><rect x="0.5" y="0.5" width="999" height="459" rx="6" fill="var(--canvas)" stroke="var(--border)" stroke-width="1"/><g class="rise"><text x="28" y="32" font-family="-apple-system,BlinkMacSystemFont,'Segoe UI','Noto Sans',Helvetica,Arial,sans-serif" font-size="15" font-weight="600" fill="var(--fg)" text-anchor="start">Commit flow</text><text x="972" y="32" font-family="-apple-system,BlinkMacSystemFont,'Segoe UI','Noto Sans',Helvetica,Arial,sans-serif" font-size="11.5" font-weight="400" fill="var(--muted)" text-anchor="end">703 commits, past year, by repo and then by language</text></g><path d="M112.0,96.7 C296.5,96.7 296.5,60.0 481.0,60.0 L481.0,150.6 C296.5,150.6 296.5,187.4 112.0,187.4 Z" fill="#8250df" fill-opacity="0.4" class="rise" style="animation-delay:0.15s"/><path d="M112.0,187.4 C296.5,187.4 296.5,160.6 481.0,160.6 L481.0,249.1 C296.5,249.1 296.5,275.9 112.0,275.9 Z" fill="#1a7f37" fill-opacity="0.4" class="rise" style="animation-delay:0.17s"/><path d="M112.0,275.9 C296.5,275.9 296.5,259.1 481.0,259.1 L481.0,314.3 C296.5,314.3 296.5,331.0 112.0,331.0 Z" fill="#0969da" fill-opacity="0.4" class="rise" style="animation-delay:0.19s"/><path d="M112.0,331.0 C296.5,331.0 296.5,324.3 481.0,324.3 L481.0,361.5 C296.5,361.5 296.5,368.2 112.0,368.2 Z" fill="#bc4c00" fill-opacity="0.4" class="rise" style="animation-delay:0.21s"/><path d="M112.0,368.2 C296.5,368.2 296.5,371.5 481.0,371.5 L481.0,398.0 C296.5,398.0 296.5,394.7 112.0,394.7 Z" fill="#bf3989" fill-opacity="0.4" class="rise" style="animation-delay:0.23s"/><path d="M112.0,394.7 C296.5,394.7 296.5,419.7 481.0,419.7 L481.0,422.3 C296.5,422.3 296.5,397.3 112.0,397.3 Z" fill="#656d76" fill-opacity="0.4" class="rise" style="animation-delay:0.25s"/><path d="M497.0,60.0 C681.5,60.0 681.5,154.0 866.0,154.0 L866.0,158.7 C681.5,158.7 681.5,64.7 497.0,64.7 Z" fill="url(#f6)" fill-opacity="0.4" class="rise" style="animation-delay:0.27s"/><path d="M497.0,64.7 C681.5,64.7 681.5,236.3 866.0,236.3 L866.0,293.6 C681.5,293.6 681.5,122.0 497.0,122.0 Z" fill="url(#f7)" fill-opacity="0.4" class="rise" style="animation-delay:0.29s"/><path d="M497.0,122.0 C681.5,122.0 681.5,371.3 866.0,371.3 L866.0,397.4 C681.5,397.4 681.5,148.1 497.0,148.1 Z" fill="url(#f8)" fill-opacity="0.4" class="rise" style="animation-delay:0.31s"/><path d="M497.0,148.1 C681.5,148.1 681.5,418.4 866.0,418.4 L866.0,421.0 C681.5,421.0 681.5,150.6 497.0,150.6 Z" fill="url(#f9)" fill-opacity="0.4" class="rise" style="animation-delay:0.33s"/><path d="M497.0,160.6 C681.5,160.6 681.5,158.7 866.0,158.7 L866.0,190.8 C681.5,190.8 681.5,192.7 497.0,192.7 Z" fill="url(#f10)" fill-opacity="0.4" class="rise" style="animation-delay:0.35s"/><path d="M497.0,192.7 C681.5,192.7 681.5,304.8 866.0,304.8 L866.0,361.3 C681.5,361.3 681.5,249.1 497.0,249.1 Z" fill="url(#f11)" fill-opacity="0.4" class="rise" style="animation-delay:0.37s"/><path d="M497.0,259.1 C681.5,259.1 681.5,60.6 866.0,60.6 L866.0,106.4 C681.5,106.4 681.5,304.9 497.0,304.9 Z" fill="url(#f12)" fill-opacity="0.4" class="rise" style="animation-delay:0.39s"/><path d="M497.0,304.9 C681.5,304.9 681.5,190.8 866.0,190.8 L866.0,198.9 C681.5,198.9 681.5,313.0 497.0,313.0 Z" fill="url(#f13)" fill-opacity="0.4" class="rise" style="animation-delay:0.41s"/><path d="M497.0,313.0 C681.5,313.0 681.5,293.6 866.0,293.6 L866.0,294.8 C681.5,294.8 681.5,314.3 497.0,314.3 Z" fill="url(#f14)" fill-opacity="0.4" class="rise" style="animation-delay:0.43s"/><path d="M497.0,324.3 C681.5,324.3 681.5,106.4 866.0,106.4 L866.0,142.3 C681.5,142.3 681.5,360.2 497.0,360.2 Z" fill="url(#f15)" fill-opacity="0.4" class="rise" style="animation-delay:0.45s"/><path d="M497.0,360.2 C681.5,360.2 681.5,421.0 866.0,421.0 L866.0,422.3 C681.5,422.3 681.5,361.5 497.0,361.5 Z" fill="url(#f16)" fill-opacity="0.4" class="rise" style="animation-delay:0.47s"/><path d="M497.0,371.5 C681.5,371.5 681.5,198.9 866.0,198.9 L866.0,225.4 C681.5,225.4 681.5,398.0 497.0,398.0 Z" fill="url(#f17)" fill-opacity="0.4" class="rise" style="animation-delay:0.49s"/><path d="M497.0,419.7 C681.5,419.7 681.5,142.3 866.0,142.3 L866.0,144.0 C681.5,144.0 681.5,421.4 497.0,421.4 Z" fill="url(#f18)" fill-opacity="0.4" class="rise" style="animation-delay:0.51s"/><path d="M497.0,421.4 C681.5,421.4 681.5,225.4 866.0,225.4 L866.0,226.3 C681.5,226.3 681.5,422.3 497.0,422.3 Z" fill="url(#f19)" fill-opacity="0.4" class="rise" style="animation-delay:0.53s"/><g class="rise" style="animation-delay:0.05s"><rect x="96.0" y="96.7" width="16" height="300.6" rx="2" fill="#1a7f37"/><text x="86.0" y="245.0" font-family="-apple-system,BlinkMacSystemFont,'Segoe UI','Noto Sans',Helvetica,Arial,sans-serif" font-size="11.5" font-weight="600" fill="var(--fg)" text-anchor="end" stroke="var(--canvas)" stroke-width="3.5" paint-order="stroke">Commits</text><text x="86.0" y="259.0" font-family="ui-monospace,SFMono-Regular,'SF Mono',Menlo,Consolas,'Liberation Mono',monospace" font-size="10.5" font-weight="400" fill="var(--muted)" text-anchor="end" stroke="var(--canvas)" stroke-width="3.5" paint-order="stroke">703</text></g><g class="rise" style="animation-delay:0.25s"><rect x="481.0" y="60.0" width="16" height="90.6" rx="2" fill="#8250df"/><text x="507.0" y="103.31994261119081" font-family="-apple-system,BlinkMacSystemFont,'Segoe UI','Noto Sans',Helvetica,Arial,sans-serif" font-size="11.5" font-weight="600" fill="var(--fg)" text-anchor="start" stroke="var(--canvas)" stroke-width="3.5" paint-order="stroke">Tree-sitter-sql-polyglot</text><text x="507.0" y="117.31994261119081" font-family="ui-monospace,SFMono-Regular,'SF Mono',Menlo,Consolas,'Liberation Mono',monospace" font-size="10.5" font-weight="400" fill="var(--muted)" text-anchor="start" stroke="var(--canvas)" stroke-width="3.5" paint-order="stroke">212</text></g><g class="rise" style="animation-delay:0.25s"><rect x="481.0" y="160.6" width="16" height="88.5" rx="2" fill="#1a7f37"/><text x="507.0" y="202.8909612625538" font-family="-apple-system,BlinkMacSystemFont,'Segoe UI','Noto Sans',Helvetica,Arial,sans-serif" font-size="11.5" font-weight="600" fill="var(--fg)" text-anchor="start" stroke="var(--canvas)" stroke-width="3.5" paint-order="stroke">burnt</text><text x="507.0" y="216.8909612625538" font-family="ui-monospace,SFMono-Regular,'SF Mono',Menlo,Consolas,'Liberation Mono',monospace" font-size="10.5" font-weight="400" fill="var(--muted)" text-anchor="start" stroke="var(--canvas)" stroke-width="3.5" paint-order="stroke">207</text></g><g class="rise" style="animation-delay:0.25s"><rect x="481.0" y="259.1" width="16" height="55.2" rx="2" fill="#0969da"/><text x="507.0" y="284.71879483500715" font-family="-apple-system,BlinkMacSystemFont,'Segoe UI','Noto Sans',Helvetica,Arial,sans-serif" font-size="11.5" font-weight="600" fill="var(--fg)" text-anchor="start" stroke="var(--canvas)" stroke-width="3.5" paint-order="stroke">Mallard</text><text x="507.0" y="298.71879483500715" font-family="ui-monospace,SFMono-Regular,'SF Mono',Menlo,Consolas,'Liberation Mono',monospace" font-size="10.5" font-weight="400" fill="var(--muted)" text-anchor="start" stroke="var(--canvas)" stroke-width="3.5" paint-order="stroke">129</text></g><g class="rise" style="animation-delay:0.25s"><rect x="481.0" y="324.3" width="16" height="37.2" rx="2" fill="#bc4c00"/><text x="507.0" y="340.8938307030129" font-family="-apple-system,BlinkMacSystemFont,'Segoe UI','Noto Sans',Helvetica,Arial,sans-serif" font-size="11.5" font-weight="600" fill="var(--fg)" text-anchor="start" stroke="var(--canvas)" stroke-width="3.5" paint-order="stroke">Hobby-SelfHostedHytaleServer</text><text x="507.0" y="354.8938307030129" font-family="ui-monospace,SFMono-Regular,'SF Mono',Menlo,Consolas,'Liberation Mono',monospace" font-size="10.5" font-weight="400" fill="var(--muted)" text-anchor="start" stroke="var(--canvas)" stroke-width="3.5" paint-order="stroke">87</text></g><g class="rise" style="animation-delay:0.25s"><rect x="481.0" y="371.5" width="16" height="26.5" rx="2" fill="#bf3989"/><text x="507.0" y="382.74605451936867" font-family="-apple-system,BlinkMacSystemFont,'Segoe UI','Noto Sans',Helvetica,Arial,sans-serif" font-size="11.5" font-weight="600" fill="var(--fg)" text-anchor="start" stroke="var(--canvas)" stroke-width="3.5" paint-order="stroke">Jepa_Experiments</text><text x="507.0" y="396.74605451936867" font-family="ui-monospace,SFMono-Regular,'SF Mono',Menlo,Consolas,'Liberation Mono',monospace" font-size="10.5" font-weight="400" fill="var(--muted)" text-anchor="start" stroke="var(--canvas)" stroke-width="3.5" paint-order="stroke">62</text></g><g class="rise" style="animation-delay:0.25s"><rect x="481.0" y="419.7" width="16" height="2.6" rx="2" fill="#656d76"/><text x="507.0" y="418.99999999999994" font-family="-apple-system,BlinkMacSystemFont,'Segoe UI','Noto Sans',Helvetica,Arial,sans-serif" font-size="11.5" font-weight="600" fill="var(--fg)" text-anchor="start" stroke="var(--canvas)" stroke-width="3.5" paint-order="stroke">Other repos</text><text x="507.0" y="432.99999999999994" font-family="ui-monospace,SFMono-Regular,'SF Mono',Menlo,Consolas,'Liberation Mono',monospace" font-size="10.5" font-weight="400" fill="var(--muted)" text-anchor="start" stroke="var(--canvas)" stroke-width="3.5" paint-order="stroke">6</text></g><g class="rise" style="animation-delay:0.35s"><rect x="866.0" y="60.6" width="16" height="83.4" rx="2" fill="#3178c6"/><text x="892.0" y="100.32711621233861" font-family="-apple-system,BlinkMacSystemFont,'Segoe UI','Noto Sans',Helvetica,Arial,sans-serif" font-size="11.5" font-weight="600" fill="var(--fg)" text-anchor="start" stroke="var(--canvas)" stroke-width="3.5" paint-order="stroke">TypeScript</text><text x="892.0" y="114.32711621233861" font-family="ui-monospace,SFMono-Regular,'SF Mono',Menlo,Consolas,'Liberation Mono',monospace" font-size="10.5" font-weight="400" fill="var(--muted)" text-anchor="start" stroke="var(--canvas)" stroke-width="3.5" paint-order="stroke">195</text></g><g class="rise" style="animation-delay:0.35s"><rect x="866.0" y="154.0" width="16" height="72.3" rx="2" fill="#3572A5"/><text x="892.0" y="188.1406025824964" font-family="-apple-system,BlinkMacSystemFont,'Segoe UI','Noto Sans',Helvetica,Arial,sans-serif" font-size="11.5" font-weight="600" fill="var(--fg)" text-anchor="start" stroke="var(--canvas)" stroke-width="3.5" paint-order="stroke">Python</text><text x="892.0" y="202.1406025824964" font-family="ui-monospace,SFMono-Regular,'SF Mono',Menlo,Consolas,'Liberation Mono',monospace" font-size="10.5" font-weight="400" fill="var(--muted)" text-anchor="start" stroke="var(--canvas)" stroke-width="3.5" paint-order="stroke">169</text></g><g class="rise" style="animation-delay:0.35s"><rect x="866.0" y="236.3" width="16" height="58.6" rx="2" fill="#f1e05a"/><text x="892.0" y="263.5552367288378" font-family="-apple-system,BlinkMacSystemFont,'Segoe UI','Noto Sans',Helvetica,Arial,sans-serif" font-size="11.5" font-weight="600" fill="var(--fg)" text-anchor="start" stroke="var(--canvas)" stroke-width="3.5" paint-order="stroke">JavaScript</text><text x="892.0" y="277.5552367288378" font-family="ui-monospace,SFMono-Regular,'SF Mono',Menlo,Consolas,'Liberation Mono',monospace" font-size="10.5" font-weight="400" fill="var(--muted)" text-anchor="start" stroke="var(--canvas)" stroke-width="3.5" paint-order="stroke">137</text></g><g class="rise" style="animation-delay:0.35s"><rect x="866.0" y="304.8" width="16" height="56.4" rx="2" fill="#dea584"/><text x="892.0" y="331.06025824964127" font-family="-apple-system,BlinkMacSystemFont,'Segoe UI','Noto Sans',Helvetica,Arial,sans-serif" font-size="11.5" font-weight="600" fill="var(--fg)" text-anchor="start" stroke="var(--canvas)" stroke-width="3.5" paint-order="stroke">Rust</text><text x="892.0" y="345.06025824964127" font-family="ui-monospace,SFMono-Regular,'SF Mono',Menlo,Consolas,'Liberation Mono',monospace" font-size="10.5" font-weight="400" fill="var(--muted)" text-anchor="start" stroke="var(--canvas)" stroke-width="3.5" paint-order="stroke">132</text></g><g class="rise" style="animation-delay:0.35s"><rect x="866.0" y="371.3" width="16" height="26.1" rx="2" fill="#555555"/><text x="892.0" y="382.31850789096126" font-family="-apple-system,BlinkMacSystemFont,'Segoe UI','Noto Sans',Helvetica,Arial,sans-serif" font-size="11.5" font-weight="600" fill="var(--fg)" text-anchor="start" stroke="var(--canvas)" stroke-width="3.5" paint-order="stroke">C</text><text x="892.0" y="396.31850789096126" font-family="ui-monospace,SFMono-Regular,'SF Mono',Menlo,Consolas,'Liberation Mono',monospace" font-size="10.5" font-weight="400" fill="var(--muted)" text-anchor="start" stroke="var(--canvas)" stroke-width="3.5" paint-order="stroke">61</text></g><g class="rise" style="animation-delay:0.35s"><rect x="866.0" y="418.4" width="16" height="3.8" rx="2" fill="#656d76"/><text x="892.0" y="418.35868005738877" font-family="-apple-system,BlinkMacSystemFont,'Segoe UI','Noto Sans',Helvetica,Arial,sans-serif" font-size="11.5" font-weight="600" fill="var(--fg)" text-anchor="start" stroke="var(--canvas)" stroke-width="3.5" paint-order="stroke">Other languages</text><text x="892.0" y="432.35868005738877" font-family="ui-monospace,SFMono-Regular,'SF Mono',Menlo,Consolas,'Liberation Mono',monospace" font-size="10.5" font-weight="400" fill="var(--muted)" text-anchor="start" stroke="var(--canvas)" stroke-width="3.5" paint-order="stroke">9</text></g></svg>
