<svg xmlns="http://www.w3.org/2000/svg" viewBox="0 0 1000 460" width="1000" height="460" role="img" aria-label="Commit flow: 719 commits in the past year, from repo to language, sized by commits. Tree-sitter-sql-polyglot 229, burnt 207, Mallard 129, Hobby-SelfHostedHytaleServer 87, Jepa_Experiments 62, Other repos 5, TypeScript 195, Python 169, JavaScript 147, Rust 132, C 67, Other languages 9."><style>svg{--canvas:#ffffff;--subtle:#f6f8fa;--border:#d0d7de;--fg:#1f2328;--muted:#59636e;--accent:#1a7f37;--link:#0969da}.rise{animation:rise .55s cubic-bezier(.2,.7,.2,1) both}@keyframes rise{from{opacity:0;transform:translateY(7px)}to{opacity:1;transform:none}}.bar{animation:grow 1s cubic-bezier(.2,.75,.2,1) both}@keyframes grow{from{transform:scaleX(0)}to{transform:scaleX(1)}}.pulse{animation:pulse 2.4s ease-in-out infinite}@keyframes pulse{0%,100%{opacity:1}50%{opacity:.45}}@media (prefers-reduced-motion:reduce){.rise,.bar,.pulse{animation:none;opacity:1;transform:none}}</style><defs><linearGradient id="f0" gradientUnits="userSpaceOnUse" x1="136.0" x2="477.0"><stop offset="0" stop-color="#1a7f37"/><stop offset="1" stop-color="#8250df"/></linearGradient><linearGradient id="f1" gradientUnits="userSpaceOnUse" x1="136.0" x2="477.0"><stop offset="0" stop-color="#1a7f37"/><stop offset="1" stop-color="#1a7f37"/></linearGradient><linearGradient id="f2" gradientUnits="userSpaceOnUse" x1="136.0" x2="477.0"><stop offset="0" stop-color="#1a7f37"/><stop offset="1" stop-color="#0969da"/></linearGradient><linearGradient id="f3" gradientUnits="userSpaceOnUse" x1="136.0" x2="477.0"><stop offset="0" stop-color="#1a7f37"/><stop offset="1" stop-color="#bc4c00"/></linearGradient><linearGradient id="f4" gradientUnits="userSpaceOnUse" x1="136.0" x2="477.0"><stop offset="0" stop-color="#1a7f37"/><stop offset="1" stop-color="#bf3989"/></linearGradient><linearGradient id="f5" gradientUnits="userSpaceOnUse" x1="136.0" x2="477.0"><stop offset="0" stop-color="#1a7f37"/><stop offset="1" stop-color="#656d76"/></linearGradient><linearGradient id="f6" gradientUnits="userSpaceOnUse" x1="493.0" x2="834.0"><stop offset="0" stop-color="#8250df"/><stop offset="1" stop-color="#3572A5"/></linearGradient><linearGradient id="f7" gradientUnits="userSpaceOnUse" x1="493.0" x2="834.0"><stop offset="0" stop-color="#8250df"/><stop offset="1" stop-color="#f1e05a"/></linearGradient><linearGradient id="f8" gradientUnits="userSpaceOnUse" x1="493.0" x2="834.0"><stop offset="0" stop-color="#8250df"/><stop offset="1" stop-color="#555555"/></linearGradient><linearGradient id="f9" gradientUnits="userSpaceOnUse" x1="493.0" x2="834.0"><stop offset="0" stop-color="#8250df"/><stop offset="1" stop-color="#656d76"/></linearGradient><linearGradient id="f10" gradientUnits="userSpaceOnUse" x1="493.0" x2="834.0"><stop offset="0" stop-color="#1a7f37"/><stop offset="1" stop-color="#3572A5"/></linearGradient><linearGradient id="f11" gradientUnits="userSpaceOnUse" x1="493.0" x2="834.0"><stop offset="0" stop-color="#1a7f37"/><stop offset="1" stop-color="#dea584"/></linearGradient><linearGradient id="f12" gradientUnits="userSpaceOnUse" x1="493.0" x2="834.0"><stop offset="0" stop-color="#0969da"/><stop offset="1" stop-color="#3178c6"/></linearGradient><linearGradient id="f13" gradientUnits="userSpaceOnUse" x1="493.0" x2="834.0"><stop offset="0" stop-color="#0969da"/><stop offset="1" stop-color="#3572A5"/></linearGradient><linearGradient id="f14" gradientUnits="userSpaceOnUse" x1="493.0" x2="834.0"><stop offset="0" stop-color="#0969da"/><stop offset="1" stop-color="#f1e05a"/></linearGradient><linearGradient id="f15" gradientUnits="userSpaceOnUse" x1="493.0" x2="834.0"><stop offset="0" stop-color="#bc4c00"/><stop offset="1" stop-color="#3178c6"/></linearGradient><linearGradient id="f16" gradientUnits="userSpaceOnUse" x1="493.0" x2="834.0"><stop offset="0" stop-color="#bc4c00"/><stop offset="1" stop-color="#656d76"/></linearGradient><linearGradient id="f17" gradientUnits="userSpaceOnUse" x1="493.0" x2="834.0"><stop offset="0" stop-color="#bf3989"/><stop offset="1" stop-color="#3572A5"/></linearGradient><linearGradient id="f18" gradientUnits="userSpaceOnUse" x1="493.0" x2="834.0"><stop offset="0" stop-color="#656d76"/><stop offset="1" stop-color="#3178c6"/></linearGradient><linearGradient id="f19" gradientUnits="userSpaceOnUse" x1="493.0" x2="834.0"><stop offset="0" stop-color="#656d76"/><stop offset="1" stop-color="#3572A5"/></linearGradient></defs><rect x="0.5" y="0.5" width="999" height="459" rx="6" fill="var(--canvas)" stroke="var(--border)" stroke-width="1"/><g class="rise"><text x="28" y="32" font-family="-apple-system,BlinkMacSystemFont,'Segoe UI','Noto Sans',Helvetica,Arial,sans-serif" font-size="15" font-weight="600" fill="var(--fg)" text-anchor="start">Commit flow</text><text x="972" y="32" font-family="-apple-system,BlinkMacSystemFont,'Segoe UI','Noto Sans',Helvetica,Arial,sans-serif" font-size="11.5" font-weight="400" fill="var(--muted)" text-anchor="end">719 commits, past year, by repo and then by language</text></g><path d="M136.0,93.9 C306.5,93.9 306.5,60.0 477.0,60.0 L477.0,157.5 C306.5,157.5 306.5,191.4 136.0,191.4 Z" fill="url(#f0)" fill-opacity="0.4" class="rise" style="animation-delay:0.15s"/><path d="M136.0,191.4 C306.5,191.4 306.5,167.5 477.0,167.5 L477.0,255.6 C306.5,255.6 306.5,279.6 136.0,279.6 Z" fill="url(#f1)" fill-opacity="0.4" class="rise" style="animation-delay:0.17s"/><path d="M136.0,279.6 C306.5,279.6 306.5,265.6 477.0,265.6 L477.0,320.6 C306.5,320.6 306.5,334.5 136.0,334.5 Z" fill="url(#f2)" fill-opacity="0.4" class="rise" style="animation-delay:0.19s"/><path d="M136.0,334.5 C306.5,334.5 306.5,330.6 477.0,330.6 L477.0,367.6 C306.5,367.6 306.5,371.5 136.0,371.5 Z" fill="url(#f3)" fill-opacity="0.4" class="rise" style="animation-delay:0.21s"/><path d="M136.0,371.5 C306.5,371.5 306.5,377.6 477.0,377.6 L477.0,404.0 C306.5,404.0 306.5,397.9 136.0,397.9 Z" fill="url(#f4)" fill-opacity="0.4" class="rise" style="animation-delay:0.23s"/><path d="M136.0,397.9 C306.5,397.9 306.5,422.7 477.0,422.7 L477.0,424.9 C306.5,424.9 306.5,400.1 136.0,400.1 Z" fill="url(#f5)" fill-opacity="0.4" class="rise" style="animation-delay:0.25s"/><path d="M493.0,60.0 C663.5,60.0 663.5,153.9 834.0,153.9 L834.0,159.0 C663.5,159.0 663.5,65.1 493.0,65.1 Z" fill="url(#f6)" fill-opacity="0.4" class="rise" style="animation-delay:0.27s"/><path d="M493.0,65.1 C663.5,65.1 663.5,235.8 834.0,235.8 L834.0,297.1 C663.5,297.1 663.5,126.4 493.0,126.4 Z" fill="url(#f7)" fill-opacity="0.4" class="rise" style="animation-delay:0.29s"/><path d="M493.0,126.4 C663.5,126.4 663.5,374.6 834.0,374.6 L834.0,403.1 C663.5,403.1 663.5,154.9 493.0,154.9 Z" fill="url(#f8)" fill-opacity="0.4" class="rise" style="animation-delay:0.31s"/><path d="M493.0,154.9 C663.5,154.9 663.5,421.2 834.0,421.2 L834.0,423.8 C663.5,423.8 663.5,157.5 493.0,157.5 Z" fill="url(#f9)" fill-opacity="0.4" class="rise" style="animation-delay:0.33s"/><path d="M493.0,167.5 C663.5,167.5 663.5,159.0 834.0,159.0 L834.0,190.9 C663.5,190.9 663.5,199.4 493.0,199.4 Z" fill="url(#f10)" fill-opacity="0.4" class="rise" style="animation-delay:0.35s"/><path d="M493.0,199.4 C663.5,199.4 663.5,308.4 834.0,308.4 L834.0,364.6 C663.5,364.6 663.5,255.6 493.0,255.6 Z" fill="url(#f11)" fill-opacity="0.4" class="rise" style="animation-delay:0.37s"/><path d="M493.0,265.6 C663.5,265.6 663.5,60.9 834.0,60.9 L834.0,106.4 C663.5,106.4 663.5,311.2 493.0,311.2 Z" fill="url(#f12)" fill-opacity="0.4" class="rise" style="animation-delay:0.39s"/><path d="M493.0,311.2 C663.5,311.2 663.5,190.9 834.0,190.9 L834.0,199.0 C663.5,199.0 663.5,319.3 493.0,319.3 Z" fill="url(#f13)" fill-opacity="0.4" class="rise" style="animation-delay:0.41s"/><path d="M493.0,319.3 C663.5,319.3 663.5,297.1 834.0,297.1 L834.0,298.4 C663.5,298.4 663.5,320.6 493.0,320.6 Z" fill="url(#f14)" fill-opacity="0.4" class="rise" style="animation-delay:0.43s"/><path d="M493.0,330.6 C663.5,330.6 663.5,106.4 834.0,106.4 L834.0,142.2 C663.5,142.2 663.5,366.3 493.0,366.3 Z" fill="url(#f15)" fill-opacity="0.4" class="rise" style="animation-delay:0.45s"/><path d="M493.0,366.3 C663.5,366.3 663.5,423.8 834.0,423.8 L834.0,425.1 C663.5,425.1 663.5,367.6 493.0,367.6 Z" fill="url(#f16)" fill-opacity="0.4" class="rise" style="animation-delay:0.47s"/><path d="M493.0,377.6 C663.5,377.6 663.5,199.0 834.0,199.0 L834.0,225.4 C663.5,225.4 663.5,404.0 493.0,404.0 Z" fill="url(#f17)" fill-opacity="0.4" class="rise" style="animation-delay:0.49s"/><path d="M493.0,422.7 C663.5,422.7 663.5,142.2 834.0,142.2 L834.0,143.9 C663.5,143.9 663.5,424.5 493.0,424.5 Z" fill="url(#f18)" fill-opacity="0.4" class="rise" style="animation-delay:0.51s"/><path d="M493.0,424.5 C663.5,424.5 663.5,225.4 834.0,225.4 L834.0,225.8 C663.5,225.8 663.5,424.9 493.0,424.9 Z" fill="url(#f19)" fill-opacity="0.4" class="rise" style="animation-delay:0.53s"/><g class="rise" style="animation-delay:0.05s"><rect x="120.0" y="93.9" width="16" height="306.1" rx="2" fill="#1a7f37"/><text x="108.0" y="251.0" font-family="-apple-system,BlinkMacSystemFont,'Segoe UI','Noto Sans',Helvetica,Arial,sans-serif" font-size="11.5" text-anchor="end" fill="var(--fg)"><tspan font-weight="600">Commits</tspan><tspan dx="7" font-family="ui-monospace,SFMono-Regular,'SF Mono',Menlo,Consolas,'Liberation Mono',monospace" font-size="10.5" fill="var(--muted)">719</tspan></text></g><g class="rise" style="animation-delay:0.25s"><rect x="477.0" y="60.0" width="16" height="97.5" rx="2" fill="#8250df"/><text x="465.0" y="112.75070028011213" font-family="-apple-system,BlinkMacSystemFont,'Segoe UI','Noto Sans',Helvetica,Arial,sans-serif" font-size="11.5" text-anchor="end" fill="var(--fg)"><tspan font-weight="600">Tree-sitter-sql-polyglot</tspan><tspan dx="7" font-family="ui-monospace,SFMono-Regular,'SF Mono',Menlo,Consolas,'Liberation Mono',monospace" font-size="10.5" fill="var(--muted)">229</tspan></text></g><g class="rise" style="animation-delay:0.25s"><rect x="477.0" y="167.5" width="16" height="88.1" rx="2" fill="#1a7f37"/><text x="465.0" y="215.56862745098042" font-family="-apple-system,BlinkMacSystemFont,'Segoe UI','Noto Sans',Helvetica,Arial,sans-serif" font-size="11.5" text-anchor="end" fill="var(--fg)"><tspan font-weight="600">burnt</tspan><tspan dx="7" font-family="ui-monospace,SFMono-Regular,'SF Mono',Menlo,Consolas,'Liberation Mono',monospace" font-size="10.5" fill="var(--muted)">207</tspan></text></g><g class="rise" style="animation-delay:0.25s"><rect x="477.0" y="265.6" width="16" height="54.9" rx="2" fill="#0969da"/><text x="465.0" y="297.0980392156863" font-family="-apple-system,BlinkMacSystemFont,'Segoe UI','Noto Sans',Helvetica,Arial,sans-serif" font-size="11.5" text-anchor="end" fill="var(--fg)"><tspan font-weight="600">Mallard</tspan><tspan dx="7" font-family="ui-monospace,SFMono-Regular,'SF Mono',Menlo,Consolas,'Liberation Mono',monospace" font-size="10.5" fill="var(--muted)">129</tspan></text></g><g class="rise" style="animation-delay:0.25s"><rect x="477.0" y="330.6" width="16" height="37.0" rx="2" fill="#bc4c00"/><text x="465.0" y="353.0812324929972" font-family="-apple-system,BlinkMacSystemFont,'Segoe UI','Noto Sans',Helvetica,Arial,sans-serif" font-size="11.5" text-anchor="end" fill="var(--fg)"><tspan font-weight="600">Hobby-SelfHostedHytaleServer</tspan><tspan dx="7" font-family="ui-monospace,SFMono-Regular,'SF Mono',Menlo,Consolas,'Liberation Mono',monospace" font-size="10.5" fill="var(--muted)">87</tspan></text></g><g class="rise" style="animation-delay:0.25s"><rect x="477.0" y="377.6" width="16" height="26.4" rx="2" fill="#bf3989"/><text x="465.0" y="394.8011204481792" font-family="-apple-system,BlinkMacSystemFont,'Segoe UI','Noto Sans',Helvetica,Arial,sans-serif" font-size="11.5" text-anchor="end" fill="var(--fg)"><tspan font-weight="600">Jepa_Experiments</tspan><tspan dx="7" font-family="ui-monospace,SFMono-Regular,'SF Mono',Menlo,Consolas,'Liberation Mono',monospace" font-size="10.5" fill="var(--muted)">62</tspan></text></g><g class="rise" style="animation-delay:0.25s"><rect x="477.0" y="422.7" width="16" height="2.5" rx="2" fill="#656d76"/><text x="465.0" y="427.9999999999999" font-family="-apple-system,BlinkMacSystemFont,'Segoe UI','Noto Sans',Helvetica,Arial,sans-serif" font-size="11.5" text-anchor="end" fill="var(--fg)"><tspan font-weight="600">Other repos</tspan><tspan dx="7" font-family="ui-monospace,SFMono-Regular,'SF Mono',Menlo,Consolas,'Liberation Mono',monospace" font-size="10.5" fill="var(--muted)">5</tspan></text></g><g class="rise" style="animation-delay:0.35s"><rect x="834.0" y="60.9" width="16" height="83.0" rx="2" fill="#3178c6"/><text x="862.0" y="106.3641456582634" font-family="-apple-system,BlinkMacSystemFont,'Segoe UI','Noto Sans',Helvetica,Arial,sans-serif" font-size="11.5" text-anchor="start" fill="var(--fg)"><tspan font-weight="600">TypeScript</tspan><tspan dx="7" font-family="ui-monospace,SFMono-Regular,'SF Mono',Menlo,Consolas,'Liberation Mono',monospace" font-size="10.5" fill="var(--muted)">195</tspan></text></g><g class="rise" style="animation-delay:0.35s"><rect x="834.0" y="153.9" width="16" height="72.0" rx="2" fill="#3572A5"/><text x="862.0" y="193.85434173669472" font-family="-apple-system,BlinkMacSystemFont,'Segoe UI','Noto Sans',Helvetica,Arial,sans-serif" font-size="11.5" text-anchor="start" fill="var(--fg)"><tspan font-weight="600">Python</tspan><tspan dx="7" font-family="ui-monospace,SFMono-Regular,'SF Mono',Menlo,Consolas,'Liberation Mono',monospace" font-size="10.5" fill="var(--muted)">169</tspan></text></g><g class="rise" style="animation-delay:0.35s"><rect x="834.0" y="235.8" width="16" height="62.6" rx="2" fill="#f1e05a"/><text x="862.0" y="271.12605042016804" font-family="-apple-system,BlinkMacSystemFont,'Segoe UI','Noto Sans',Helvetica,Arial,sans-serif" font-size="11.5" text-anchor="start" fill="var(--fg)"><tspan font-weight="600">JavaScript</tspan><tspan dx="7" font-family="ui-monospace,SFMono-Regular,'SF Mono',Menlo,Consolas,'Liberation Mono',monospace" font-size="10.5" fill="var(--muted)">147</tspan></text></g><g class="rise" style="animation-delay:0.35s"><rect x="834.0" y="308.4" width="16" height="56.2" rx="2" fill="#dea584"/><text x="862.0" y="340.5210084033613" font-family="-apple-system,BlinkMacSystemFont,'Segoe UI','Noto Sans',Helvetica,Arial,sans-serif" font-size="11.5" text-anchor="start" fill="var(--fg)"><tspan font-weight="600">Rust</tspan><tspan dx="7" font-family="ui-monospace,SFMono-Regular,'SF Mono',Menlo,Consolas,'Liberation Mono',monospace" font-size="10.5" fill="var(--muted)">132</tspan></text></g><g class="rise" style="animation-delay:0.35s"><rect x="834.0" y="374.6" width="16" height="28.5" rx="2" fill="#555555"/><text x="862.0" y="392.8851540616246" font-family="-apple-system,BlinkMacSystemFont,'Segoe UI','Noto Sans',Helvetica,Arial,sans-serif" font-size="11.5" text-anchor="start" fill="var(--fg)"><tspan font-weight="600">C</tspan><tspan dx="7" font-family="ui-monospace,SFMono-Regular,'SF Mono',Menlo,Consolas,'Liberation Mono',monospace" font-size="10.5" fill="var(--muted)">67</tspan></text></g><g class="rise" style="animation-delay:0.35s"><rect x="834.0" y="421.2" width="16" height="3.8" rx="2" fill="#656d76"/><text x="862.0" y="427.14845938375345" font-family="-apple-system,BlinkMacSystemFont,'Segoe UI','Noto Sans',Helvetica,Arial,sans-serif" font-size="11.5" text-anchor="start" fill="var(--fg)"><tspan font-weight="600">Other languages</tspan><tspan dx="7" font-family="ui-monospace,SFMono-Regular,'SF Mono',Menlo,Consolas,'Liberation Mono',monospace" font-size="10.5" fill="var(--muted)">9</tspan></text></g></svg>
