<svg xmlns="http://www.w3.org/2000/svg" viewBox="0 0 1200 248" width="1200" height="248" role="img" aria-label="Mallard — CENTRALISED BURST"><rect x="0" y="0" width="1200" height="248" rx="0" fill="#EFE8D8"/><rect x="12" y="12" width="1176" height="224" rx="0" fill="#F6F2E7" stroke="#CFC7B4" stroke-width="1"/><g fill="#BDB6A3" opacity="0.42"><circle cx="30" cy="30" r="1"/><circle cx="52" cy="30" r="1"/><circle cx="74" cy="30" r="1"/><circle cx="96" cy="30" r="1"/><circle cx="118" cy="30" r="1"/><circle cx="140" cy="30" r="1"/><circle cx="162" cy="30" r="1"/><circle cx="184" cy="30" r="1"/><circle cx="206" cy="30" r="1"/><circle cx="228" cy="30" r="1"/><circle cx="250" cy="30" r="1"/><circle cx="272" cy="30" r="1"/><circle cx="294" cy="30" r="1"/><circle cx="316" cy="30" r="1"/><circle cx="338" cy="30" r="1"/><circle cx="360" cy="30" r="1"/><circle cx="382" cy="30" r="1"/><circle cx="404" cy="30" r="1"/><circle cx="426" cy="30" r="1"/><circle cx="448" cy="30" r="1"/><circle cx="470" cy="30" r="1"/><circle cx="492" cy="30" r="1"/><circle cx="514" cy="30" r="1"/><circle cx="536" cy="30" r="1"/><circle cx="558" cy="30" r="1"/><circle cx="580" cy="30" r="1"/><circle cx="602" cy="30" r="1"/><circle cx="624" cy="30" r="1"/><circle cx="646" cy="30" r="1"/><circle cx="668" cy="30" r="1"/><circle cx="690" cy="30" r="1"/><circle cx="712" cy="30" r="1"/><circle cx="734" cy="30" r="1"/><circle cx="756" cy="30" r="1"/><circle cx="778" cy="30" r="1"/><circle cx="800" cy="30" r="1"/><circle cx="822" cy="30" r="1"/><circle cx="844" cy="30" r="1"/><circle cx="866" cy="30" r="1"/><circle cx="888" cy="30" r="1"/><circle cx="910" cy="30" r="1"/><circle cx="932" cy="30" r="1"/><circle cx="954" cy="30" r="1"/><circle cx="976" cy="30" r="1"/><circle cx="998" cy="30" r="1"/><circle cx="1020" cy="30" r="1"/><circle cx="1042" cy="30" r="1"/><circle cx="1064" cy="30" r="1"/><circle cx="1086" cy="30" r="1"/><circle cx="1108" cy="30" r="1"/><circle cx="1130" cy="30" r="1"/><circle cx="1152" cy="30" r="1"/><circle cx="30" cy="52" r="1"/><circle cx="52" cy="52" r="1"/><circle cx="74" cy="52" r="1"/><circle cx="96" cy="52" r="1"/><circle cx="118" cy="52" r="1"/><circle cx="140" cy="52" r="1"/><circle cx="162" cy="52" r="1"/><circle cx="184" cy="52" r="1"/><circle cx="206" cy="52" r="1"/><circle cx="228" cy="52" r="1"/><circle cx="250" cy="52" r="1"/><circle cx="272" cy="52" r="1"/><circle cx="294" cy="52" r="1"/><circle cx="316" cy="52" r="1"/><circle cx="338" cy="52" r="1"/><circle cx="360" cy="52" r="1"/><circle cx="382" cy="52" r="1"/><circle cx="404" cy="52" r="1"/><circle cx="426" cy="52" r="1"/><circle cx="448" cy="52" r="1"/><circle cx="470" cy="52" r="1"/><circle cx="492" cy="52" r="1"/><circle cx="514" cy="52" r="1"/><circle cx="536" cy="52" r="1"/><circle cx="558" cy="52" r="1"/><circle cx="580" cy="52" r="1"/><circle cx="602" cy="52" r="1"/><circle cx="624" cy="52" r="1"/><circle cx="646" cy="52" r="1"/><circle cx="668" cy="52" r="1"/><circle cx="690" cy="52" r="1"/><circle cx="712" cy="52" r="1"/><circle cx="734" cy="52" r="1"/><circle cx="756" cy="52" r="1"/><circle cx="778" cy="52" r="1"/><circle cx="800" cy="52" r="1"/><circle cx="822" cy="52" r="1"/><circle cx="844" cy="52" r="1"/><circle cx="866" cy="52" r="1"/><circle cx="888" cy="52" r="1"/><circle cx="910" cy="52" r="1"/><circle cx="932" cy="52" r="1"/><circle cx="954" cy="52" r="1"/><circle cx="976" cy="52" r="1"/><circle cx="998" cy="52" r="1"/><circle cx="1020" cy="52" r="1"/><circle cx="1042" cy="52" r="1"/><circle cx="1064" cy="52" r="1"/><circle cx="1086" cy="52" r="1"/><circle cx="1108" cy="52" r="1"/><circle cx="1130" cy="52" r="1"/><circle cx="1152" cy="52" r="1"/><circle cx="30" cy="74" r="1"/><circle cx="52" cy="74" r="1"/><circle cx="74" cy="74" r="1"/><circle cx="96" cy="74" r="1"/><circle cx="118" cy="74" r="1"/><circle cx="140" cy="74" r="1"/><circle cx="162" cy="74" r="1"/><circle cx="184" cy="74" r="1"/><circle cx="206" cy="74" r="1"/><circle cx="228" cy="74" r="1"/><circle cx="250" cy="74" r="1"/><circle cx="272" cy="74" r="1"/><circle cx="294" cy="74" r="1"/><circle cx="316" cy="74" r="1"/><circle cx="338" cy="74" r="1"/><circle cx="360" cy="74" r="1"/><circle cx="382" cy="74" r="1"/><circle cx="404" cy="74" r="1"/><circle cx="426" cy="74" r="1"/><circle cx="448" cy="74" r="1"/><circle cx="470" cy="74" r="1"/><circle cx="492" cy="74" r="1"/><circle cx="514" cy="74" r="1"/><circle cx="536" cy="74" r="1"/><circle cx="558" cy="74" r="1"/><circle cx="580" cy="74" r="1"/><circle cx="602" cy="74" r="1"/><circle cx="624" cy="74" r="1"/><circle cx="646" cy="74" r="1"/><circle cx="668" cy="74" r="1"/><circle cx="690" cy="74" r="1"/><circle cx="712" cy="74" r="1"/><circle cx="734" cy="74" r="1"/><circle cx="756" cy="74" r="1"/><circle cx="778" cy="74" r="1"/><circle cx="800" cy="74" r="1"/><circle cx="822" cy="74" r="1"/><circle cx="844" cy="74" r="1"/><circle cx="866" cy="74" r="1"/><circle cx="888" cy="74" r="1"/><circle cx="910" cy="74" r="1"/><circle cx="932" cy="74" r="1"/><circle cx="954" cy="74" r="1"/><circle cx="976" cy="74" r="1"/><circle cx="998" cy="74" r="1"/><circle cx="1020" cy="74" r="1"/><circle cx="1042" cy="74" r="1"/><circle cx="1064" cy="74" r="1"/><circle cx="1086" cy="74" r="1"/><circle cx="1108" cy="74" r="1"/><circle cx="1130" cy="74" r="1"/><circle cx="1152" cy="74" r="1"/><circle cx="30" cy="96" r="1"/><circle cx="52" cy="96" r="1"/><circle cx="74" cy="96" r="1"/><circle cx="96" cy="96" r="1"/><circle cx="118" cy="96" r="1"/><circle cx="140" cy="96" r="1"/><circle cx="162" cy="96" r="1"/><circle cx="184" cy="96" r="1"/><circle cx="206" cy="96" r="1"/><circle cx="228" cy="96" r="1"/><circle cx="250" cy="96" r="1"/><circle cx="272" cy="96" r="1"/><circle cx="294" cy="96" r="1"/><circle cx="316" cy="96" r="1"/><circle cx="338" cy="96" r="1"/><circle cx="360" cy="96" r="1"/><circle cx="382" cy="96" r="1"/><circle cx="404" cy="96" r="1"/><circle cx="426" cy="96" r="1"/><circle cx="448" cy="96" r="1"/><circle cx="470" cy="96" r="1"/><circle cx="492" cy="96" r="1"/><circle cx="514" cy="96" r="1"/><circle cx="536" cy="96" r="1"/><circle cx="558" cy="96" r="1"/><circle cx="580" cy="96" r="1"/><circle cx="602" cy="96" r="1"/><circle cx="624" cy="96" r="1"/><circle cx="646" cy="96" r="1"/><circle cx="668" cy="96" r="1"/><circle cx="690" cy="96" r="1"/><circle cx="712" cy="96" r="1"/><circle cx="734" cy="96" r="1"/><circle cx="756" cy="96" r="1"/><circle cx="778" cy="96" r="1"/><circle cx="800" cy="96" r="1"/><circle cx="822" cy="96" r="1"/><circle cx="844" cy="96" r="1"/><circle cx="866" cy="96" r="1"/><circle cx="888" cy="96" r="1"/><circle cx="910" cy="96" r="1"/><circle cx="932" cy="96" r="1"/><circle cx="954" cy="96" r="1"/><circle cx="976" cy="96" r="1"/><circle cx="998" cy="96" r="1"/><circle cx="1020" cy="96" r="1"/><circle cx="1042" cy="96" r="1"/><circle cx="1064" cy="96" r="1"/><circle cx="1086" cy="96" r="1"/><circle cx="1108" cy="96" r="1"/><circle cx="1130" cy="96" r="1"/><circle cx="1152" cy="96" r="1"/><circle cx="30" cy="118" r="1"/><circle cx="52" cy="118" r="1"/><circle cx="74" cy="118" r="1"/><circle cx="96" cy="118" r="1"/><circle cx="118" cy="118" r="1"/><circle cx="140" cy="118" r="1"/><circle cx="162" cy="118" r="1"/><circle cx="184" cy="118" r="1"/><circle cx="206" cy="118" r="1"/><circle cx="228" cy="118" r="1"/><circle cx="250" cy="118" r="1"/><circle cx="272" cy="118" r="1"/><circle cx="294" cy="118" r="1"/><circle cx="316" cy="118" r="1"/><circle cx="338" cy="118" r="1"/><circle cx="360" cy="118" r="1"/><circle cx="382" cy="118" r="1"/><circle cx="404" cy="118" r="1"/><circle cx="426" cy="118" r="1"/><circle cx="448" cy="118" r="1"/><circle cx="470" cy="118" r="1"/><circle cx="492" cy="118" r="1"/><circle cx="514" cy="118" r="1"/><circle cx="536" cy="118" r="1"/><circle cx="558" cy="118" r="1"/><circle cx="580" cy="118" r="1"/><circle cx="602" cy="118" r="1"/><circle cx="624" cy="118" r="1"/><circle cx="646" cy="118" r="1"/><circle cx="668" cy="118" r="1"/><circle cx="690" cy="118" r="1"/><circle cx="712" cy="118" r="1"/><circle cx="734" cy="118" r="1"/><circle cx="756" cy="118" r="1"/><circle cx="778" cy="118" r="1"/><circle cx="800" cy="118" r="1"/><circle cx="822" cy="118" r="1"/><circle cx="844" cy="118" r="1"/><circle cx="866" cy="118" r="1"/><circle cx="888" cy="118" r="1"/><circle cx="910" cy="118" r="1"/><circle cx="932" cy="118" r="1"/><circle cx="954" cy="118" r="1"/><circle cx="976" cy="118" r="1"/><circle cx="998" cy="118" r="1"/><circle cx="1020" cy="118" r="1"/><circle cx="1042" cy="118" r="1"/><circle cx="1064" cy="118" r="1"/><circle cx="1086" cy="118" r="1"/><circle cx="1108" cy="118" r="1"/><circle cx="1130" cy="118" r="1"/><circle cx="1152" cy="118" r="1"/><circle cx="30" cy="140" r="1"/><circle cx="52" cy="140" r="1"/><circle cx="74" cy="140" r="1"/><circle cx="96" cy="140" r="1"/><circle cx="118" cy="140" r="1"/><circle cx="140" cy="140" r="1"/><circle cx="162" cy="140" r="1"/><circle cx="184" cy="140" r="1"/><circle cx="206" cy="140" r="1"/><circle cx="228" cy="140" r="1"/><circle cx="250" cy="140" r="1"/><circle cx="272" cy="140" r="1"/><circle cx="294" cy="140" r="1"/><circle cx="316" cy="140" r="1"/><circle cx="338" cy="140" r="1"/><circle cx="360" cy="140" r="1"/><circle cx="382" cy="140" r="1"/><circle cx="404" cy="140" r="1"/><circle cx="426" cy="140" r="1"/><circle cx="448" cy="140" r="1"/><circle cx="470" cy="140" r="1"/><circle cx="492" cy="140" r="1"/><circle cx="514" cy="140" r="1"/><circle cx="536" cy="140" r="1"/><circle cx="558" cy="140" r="1"/><circle cx="580" cy="140" r="1"/><circle cx="602" cy="140" r="1"/><circle cx="624" cy="140" r="1"/><circle cx="646" cy="140" r="1"/><circle cx="668" cy="140" r="1"/><circle cx="690" cy="140" r="1"/><circle cx="712" cy="140" r="1"/><circle cx="734" cy="140" r="1"/><circle cx="756" cy="140" r="1"/><circle cx="778" cy="140" r="1"/><circle cx="800" cy="140" r="1"/><circle cx="822" cy="140" r="1"/><circle cx="844" cy="140" r="1"/><circle cx="866" cy="140" r="1"/><circle cx="888" cy="140" r="1"/><circle cx="910" cy="140" r="1"/><circle cx="932" cy="140" r="1"/><circle cx="954" cy="140" r="1"/><circle cx="976" cy="140" r="1"/><circle cx="998" cy="140" r="1"/><circle cx="1020" cy="140" r="1"/><circle cx="1042" cy="140" r="1"/><circle cx="1064" cy="140" r="1"/><circle cx="1086" cy="140" r="1"/><circle cx="1108" cy="140" r="1"/><circle cx="1130" cy="140" r="1"/><circle cx="1152" cy="140" r="1"/><circle cx="30" cy="162" r="1"/><circle cx="52" cy="162" r="1"/><circle cx="74" cy="162" r="1"/><circle cx="96" cy="162" r="1"/><circle cx="118" cy="162" r="1"/><circle cx="140" cy="162" r="1"/><circle cx="162" cy="162" r="1"/><circle cx="184" cy="162" r="1"/><circle cx="206" cy="162" r="1"/><circle cx="228" cy="162" r="1"/><circle cx="250" cy="162" r="1"/><circle cx="272" cy="162" r="1"/><circle cx="294" cy="162" r="1"/><circle cx="316" cy="162" r="1"/><circle cx="338" cy="162" r="1"/><circle cx="360" cy="162" r="1"/><circle cx="382" cy="162" r="1"/><circle cx="404" cy="162" r="1"/><circle cx="426" cy="162" r="1"/><circle cx="448" cy="162" r="1"/><circle cx="470" cy="162" r="1"/><circle cx="492" cy="162" r="1"/><circle cx="514" cy="162" r="1"/><circle cx="536" cy="162" r="1"/><circle cx="558" cy="162" r="1"/><circle cx="580" cy="162" r="1"/><circle cx="602" cy="162" r="1"/><circle cx="624" cy="162" r="1"/><circle cx="646" cy="162" r="1"/><circle cx="668" cy="162" r="1"/><circle cx="690" cy="162" r="1"/><circle cx="712" cy="162" r="1"/><circle cx="734" cy="162" r="1"/><circle cx="756" cy="162" r="1"/><circle cx="778" cy="162" r="1"/><circle cx="800" cy="162" r="1"/><circle cx="822" cy="162" r="1"/><circle cx="844" cy="162" r="1"/><circle cx="866" cy="162" r="1"/><circle cx="888" cy="162" r="1"/><circle cx="910" cy="162" r="1"/><circle cx="932" cy="162" r="1"/><circle cx="954" cy="162" r="1"/><circle cx="976" cy="162" r="1"/><circle cx="998" cy="162" r="1"/><circle cx="1020" cy="162" r="1"/><circle cx="1042" cy="162" r="1"/><circle cx="1064" cy="162" r="1"/><circle cx="1086" cy="162" r="1"/><circle cx="1108" cy="162" r="1"/><circle cx="1130" cy="162" r="1"/><circle cx="1152" cy="162" r="1"/><circle cx="30" cy="184" r="1"/><circle cx="52" cy="184" r="1"/><circle cx="74" cy="184" r="1"/><circle cx="96" cy="184" r="1"/><circle cx="118" cy="184" r="1"/><circle cx="140" cy="184" r="1"/><circle cx="162" cy="184" r="1"/><circle cx="184" cy="184" r="1"/><circle cx="206" cy="184" r="1"/><circle cx="228" cy="184" r="1"/><circle cx="250" cy="184" r="1"/><circle cx="272" cy="184" r="1"/><circle cx="294" cy="184" r="1"/><circle cx="316" cy="184" r="1"/><circle cx="338" cy="184" r="1"/><circle cx="360" cy="184" r="1"/><circle cx="382" cy="184" r="1"/><circle cx="404" cy="184" r="1"/><circle cx="426" cy="184" r="1"/><circle cx="448" cy="184" r="1"/><circle cx="470" cy="184" r="1"/><circle cx="492" cy="184" r="1"/><circle cx="514" cy="184" r="1"/><circle cx="536" cy="184" r="1"/><circle cx="558" cy="184" r="1"/><circle cx="580" cy="184" r="1"/><circle cx="602" cy="184" r="1"/><circle cx="624" cy="184" r="1"/><circle cx="646" cy="184" r="1"/><circle cx="668" cy="184" r="1"/><circle cx="690" cy="184" r="1"/><circle cx="712" cy="184" r="1"/><circle cx="734" cy="184" r="1"/><circle cx="756" cy="184" r="1"/><circle cx="778" cy="184" r="1"/><circle cx="800" cy="184" r="1"/><circle cx="822" cy="184" r="1"/><circle cx="844" cy="184" r="1"/><circle cx="866" cy="184" r="1"/><circle cx="888" cy="184" r="1"/><circle cx="910" cy="184" r="1"/><circle cx="932" cy="184" r="1"/><circle cx="954" cy="184" r="1"/><circle cx="976" cy="184" r="1"/><circle cx="998" cy="184" r="1"/><circle cx="1020" cy="184" r="1"/><circle cx="1042" cy="184" r="1"/><circle cx="1064" cy="184" r="1"/><circle cx="1086" cy="184" r="1"/><circle cx="1108" cy="184" r="1"/><circle cx="1130" cy="184" r="1"/><circle cx="1152" cy="184" r="1"/><circle cx="30" cy="206" r="1"/><circle cx="52" cy="206" r="1"/><circle cx="74" cy="206" r="1"/><circle cx="96" cy="206" r="1"/><circle cx="118" cy="206" r="1"/><circle cx="140" cy="206" r="1"/><circle cx="162" cy="206" r="1"/><circle cx="184" cy="206" r="1"/><circle cx="206" cy="206" r="1"/><circle cx="228" cy="206" r="1"/><circle cx="250" cy="206" r="1"/><circle cx="272" cy="206" r="1"/><circle cx="294" cy="206" r="1"/><circle cx="316" cy="206" r="1"/><circle cx="338" cy="206" r="1"/><circle cx="360" cy="206" r="1"/><circle cx="382" cy="206" r="1"/><circle cx="404" cy="206" r="1"/><circle cx="426" cy="206" r="1"/><circle cx="448" cy="206" r="1"/><circle cx="470" cy="206" r="1"/><circle cx="492" cy="206" r="1"/><circle cx="514" cy="206" r="1"/><circle cx="536" cy="206" r="1"/><circle cx="558" cy="206" r="1"/><circle cx="580" cy="206" r="1"/><circle cx="602" cy="206" r="1"/><circle cx="624" cy="206" r="1"/><circle cx="646" cy="206" r="1"/><circle cx="668" cy="206" r="1"/><circle cx="690" cy="206" r="1"/><circle cx="712" cy="206" r="1"/><circle cx="734" cy="206" r="1"/><circle cx="756" cy="206" r="1"/><circle cx="778" cy="206" r="1"/><circle cx="800" cy="206" r="1"/><circle cx="822" cy="206" r="1"/><circle cx="844" cy="206" r="1"/><circle cx="866" cy="206" r="1"/><circle cx="888" cy="206" r="1"/><circle cx="910" cy="206" r="1"/><circle cx="932" cy="206" r="1"/><circle cx="954" cy="206" r="1"/><circle cx="976" cy="206" r="1"/><circle cx="998" cy="206" r="1"/><circle cx="1020" cy="206" r="1"/><circle cx="1042" cy="206" r="1"/><circle cx="1064" cy="206" r="1"/><circle cx="1086" cy="206" r="1"/><circle cx="1108" cy="206" r="1"/><circle cx="1130" cy="206" r="1"/><circle cx="1152" cy="206" r="1"/></g><rect x="22" y="22" width="5" height="5" fill="#16181D" opacity="0.75"/><rect x="1173" y="22" width="5" height="5" fill="#16181D" opacity="0.75"/><rect x="22" y="221" width="5" height="5" fill="#16181D" opacity="0.75"/><rect x="1173" y="221" width="5" height="5" fill="#16181D" opacity="0.75"/><text x="38" y="40" font-family="ui-monospace,SFMono-Regular,Menlo,Consolas,'DejaVu Sans Mono',monospace" font-size="8.5" font-weight="400" fill="#8C8676" text-anchor="start" letter-spacing="2">SPEC. 01</text><line x1="38" y1="50" x2="1162" y2="50" stroke="#CFC7B4" stroke-width="1"/><g transform="translate(34,62) scale(0.80)"><circle cx="194.0" cy="100.0" r="78" fill="none" stroke="#BDB6A3" stroke-width="1" stroke-dasharray="2 5"/><circle cx="194.0" cy="100.0" r="54" fill="none" stroke="#BDB6A3" stroke-width="1" stroke-dasharray="2 5"/><line x1="194" y1="100" x2="194.0" y2="70.0" stroke="#16181D" stroke-width="0.9" opacity="0.55"/><circle cx="194.0" cy="70.0" r="2.4" fill="#16181D" opacity="0.6"/><line x1="194" y1="100" x2="210.03414950726636" y2="34.946898232454515" stroke="#16181D" stroke-width="0.9" opacity="0.55"/><circle cx="210.0" cy="34.9" r="2.4" fill="#16181D" opacity="0.6"/><line x1="194" y1="100" x2="220.95394397853858" y2="48.643550512113826" stroke="#16181D" stroke-width="0.9" opacity="0.55"/><circle cx="221.0" cy="48.6" r="2.4" fill="#16181D" opacity="0.6"/><line x1="194" y1="100" x2="255.00728455815317" y2="31.137011168258695" stroke="#DF3B22" stroke-width="1.1" opacity="1"/><circle cx="255.0" cy="31.1" r="3.4" fill="#DF3B22" opacity="1"/><line x1="194" y1="100" x2="226.91935463574626" y2="77.27741013075376" stroke="#16181D" stroke-width="0.9" opacity="0.55"/><circle cx="226.9" cy="77.3" r="2.4" fill="#16181D" opacity="0.6"/><line x1="194" y1="100" x2="222.98550352324787" y2="89.0072485016814" stroke="#16181D" stroke-width="0.9" opacity="0.55"/><circle cx="223.0" cy="89.0" r="2.4" fill="#16181D" opacity="0.6"/><line x1="194" y1="100" x2="261.5042034386677" y2="91.80350574263804" stroke="#16181D" stroke-width="0.9" opacity="0.55"/><circle cx="261.5" cy="91.8" r="2.4" fill="#16181D" opacity="0.6"/><line x1="194" y1="100" x2="252.56982357178518" y2="107.11166413506406" stroke="#16181D" stroke-width="0.9" opacity="0.55"/><circle cx="252.6" cy="107.1" r="2.4" fill="#16181D" opacity="0.6"/><line x1="194" y1="100" x2="240.75081213427075" y2="117.73024435212679" stroke="#16181D" stroke-width="0.9" opacity="0.55"/><circle cx="240.8" cy="117.7" r="2.4" fill="#16181D" opacity="0.6"/><line x1="194" y1="100" x2="227.74233850163992" y2="123.29065461597739" stroke="#16181D" stroke-width="0.9" opacity="0.55"/><circle cx="227.7" cy="123.3" r="2.4" fill="#16181D" opacity="0.6"/><line x1="194" y1="100" x2="215.21992506370543" y2="123.95234394147523" stroke="#16181D" stroke-width="0.9" opacity="0.55"/><circle cx="215.2" cy="124.0" r="2.4" fill="#16181D" opacity="0.6"/><line x1="194" y1="100" x2="236.7545318280267" y2="181.46195436009532" stroke="#DF3B22" stroke-width="1.1" opacity="1"/><circle cx="236.8" cy="181.5" r="3.4" fill="#DF3B22" opacity="1"/><line x1="194" y1="100" x2="208.35893985725346" y2="158.25650904556312" stroke="#16181D" stroke-width="0.9" opacity="0.55"/><circle cx="208.4" cy="158.3" r="2.4" fill="#16181D" opacity="0.6"/><line x1="194" y1="100" x2="194.0" y2="151.0" stroke="#16181D" stroke-width="0.9" opacity="0.55"/><circle cx="194.0" cy="151.0" r="2.4" fill="#16181D" opacity="0.6"/><line x1="194" y1="100" x2="183.94874209992258" y2="140.77955633189418" stroke="#16181D" stroke-width="0.9" opacity="0.55"/><circle cx="183.9" cy="140.8" r="2.4" fill="#16181D" opacity="0.6"/><line x1="194" y1="100" x2="178.66413532255564" y2="129.22004884655593" stroke="#16181D" stroke-width="0.9" opacity="0.55"/><circle cx="178.7" cy="129.2" r="2.4" fill="#16181D" opacity="0.6"/><line x1="194" y1="100" x2="147.58141392314434" y2="152.39575237197707" stroke="#16181D" stroke-width="0.9" opacity="0.55"/><circle cx="147.6" cy="152.4" r="2.4" fill="#16181D" opacity="0.6"/><line x1="194" y1="100" x2="143.79798418048696" y2="134.6519495506005" stroke="#16181D" stroke-width="0.9" opacity="0.55"/><circle cx="143.8" cy="134.7" r="2.4" fill="#16181D" opacity="0.6"/><line x1="194" y1="100" x2="145.37915538035844" y2="118.43945412621187" stroke="#16181D" stroke-width="0.9" opacity="0.55"/><circle cx="145.4" cy="118.4" r="2.4" fill="#16181D" opacity="0.6"/><line x1="194" y1="100" x2="102.67078358297904" y2="111.08937458348976" stroke="#DF3B22" stroke-width="1.1" opacity="1"/><circle cx="102.7" cy="111.1" r="3.4" fill="#DF3B22" opacity="1"/><line x1="194" y1="100" x2="160.24789828066616" y2="95.901752871319" stroke="#16181D" stroke-width="0.9" opacity="0.55"/><circle cx="160.2" cy="95.9" r="2.4" fill="#16181D" opacity="0.6"/><line x1="194" y1="100" x2="127.61384676933555" y2="74.82305301997997" stroke="#16181D" stroke-width="0.9" opacity="0.55"/><circle cx="127.6" cy="74.8" r="2.4" fill="#16181D" opacity="0.6"/><line x1="194" y1="100" x2="142.9750003145933" y2="64.77998570266836" stroke="#16181D" stroke-width="0.9" opacity="0.55"/><circle cx="143.0" cy="64.8" r="2.4" fill="#16181D" opacity="0.6"/><line x1="194" y1="100" x2="158.85449911323784" y2="60.32893034693166" stroke="#16181D" stroke-width="0.9" opacity="0.55"/><circle cx="158.9" cy="60.3" r="2.4" fill="#16181D" opacity="0.6"/><line x1="194" y1="100" x2="173.5521804300742" y2="61.03993487125876" stroke="#16181D" stroke-width="0.9" opacity="0.55"/><circle cx="173.6" cy="61.0" r="2.4" fill="#16181D" opacity="0.6"/><line x1="194" y1="100" x2="185.6239517499355" y2="66.01703639008818" stroke="#16181D" stroke-width="0.9" opacity="0.55"/><circle cx="185.6" cy="66.0" r="2.4" fill="#16181D" opacity="0.6"/><circle cx="194.0" cy="100.0" r="12" fill="#2F5DA8"/><circle cx="194.0" cy="100.0" r="4.2" fill="#F6F2E7"/><text x="280" y="38" font-family="ui-monospace,SFMono-Regular,Menlo,Consolas,'DejaVu Sans Mono',monospace" font-size="7.5" font-weight="400" fill="#DF3B22" text-anchor="start" letter-spacing="0.6">over cap</text></g><line x1="360" y1="66" x2="360" y2="208" stroke="#BDB6A3" stroke-width="1" opacity="0.6"/><text x="600" y="106" font-family="ui-monospace,SFMono-Regular,Menlo,Consolas,'DejaVu Sans Mono',monospace" font-size="8.5" font-weight="400" fill="#16181D" text-anchor="middle" letter-spacing="1.7">CENTRALISED BURST</text><text x="600" y="150" font-family="'Helvetica Neue',Helvetica,Arial,sans-serif" font-size="30" font-weight="700" fill="#16181D" text-anchor="middle" letter-spacing="-0.4">Mallard</text><text x="600" y="178" font-family="ui-monospace,SFMono-Regular,Menlo,Consolas,'DejaVu Sans Mono',monospace" font-size="11" font-weight="400" fill="#8C8676" text-anchor="middle">Every AI coding request bills back</text><text x="600" y="195" font-family="ui-monospace,SFMono-Regular,Menlo,Consolas,'DejaVu Sans Mono',monospace" font-size="11" font-weight="400" fill="#8C8676" text-anchor="middle">to one budget. This watches it.</text><circle cx="573.0" cy="218.0" r="5.5" fill="#2F5DA8"/><circle cx="573.0" cy="218.0" r="1.87" fill="#F6F2E7"/><circle cx="591.0" cy="218.0" r="5.5" fill="none" stroke="#2F5DA8" stroke-width="1.4"/><circle cx="609.0" cy="218.0" r="5.5" fill="#EFA820"/><circle cx="609.0" cy="218.0" r="1.87" fill="#F6F2E7"/><circle cx="627.0" cy="218.0" r="5.5" fill="none" stroke="#16181D" stroke-width="1.4"/><line x1="840" y1="66" x2="840" y2="208" stroke="#BDB6A3" stroke-width="1" opacity="0.6"/><circle cx="1156.0" cy="40.0" r="5.5" fill="#2F5DA8"/><text x="866" y="96" font-family="ui-monospace,SFMono-Regular,Menlo,Consolas,'DejaVu Sans Mono',monospace" font-size="9.5" font-weight="400" fill="#8C8676" text-anchor="start" letter-spacing="0.8">surface</text><text x="1162" y="96" font-family="ui-monospace,SFMono-Regular,Menlo,Consolas,'DejaVu Sans Mono',monospace" font-size="11" font-weight="400" fill="#16181D" text-anchor="end">VS Code + server</text><line x1="866" y1="102" x2="1162" y2="102" stroke="#BDB6A3" stroke-width="1" stroke-dasharray="1 4" opacity="0.75"/><text x="866" y="122" font-family="ui-monospace,SFMono-Regular,Menlo,Consolas,'DejaVu Sans Mono',monospace" font-size="9.5" font-weight="400" fill="#8C8676" text-anchor="start" letter-spacing="0.8">language</text><text x="1162" y="122" font-family="ui-monospace,SFMono-Regular,Menlo,Consolas,'DejaVu Sans Mono',monospace" font-size="11" font-weight="400" fill="#16181D" text-anchor="end">TypeScript</text><line x1="866" y1="128" x2="1162" y2="128" stroke="#BDB6A3" stroke-width="1" stroke-dasharray="1 4" opacity="0.75"/><text x="866" y="148" font-family="ui-monospace,SFMono-Regular,Menlo,Consolas,'DejaVu Sans Mono',monospace" font-size="9.5" font-weight="400" fill="#8C8676" text-anchor="start" letter-spacing="0.8">state</text><text x="1162" y="148" font-family="ui-monospace,SFMono-Regular,Menlo,Consolas,'DejaVu Sans Mono',monospace" font-size="11" font-weight="400" fill="#16181D" text-anchor="end">published</text><line x1="866" y1="154" x2="1162" y2="154" stroke="#BDB6A3" stroke-width="1" stroke-dasharray="1 4" opacity="0.75"/><text x="866" y="222" font-family="ui-monospace,SFMono-Regular,Menlo,Consolas,'DejaVu Sans Mono',monospace" font-size="8.5" font-weight="400" fill="#BDB6A3" text-anchor="start" letter-spacing="0.6">github.com/RelativelyUnknown</text></svg>
