<svg xmlns="http://www.w3.org/2000/svg" viewBox="0 0 1200 248" width="1200" height="248" role="img" aria-label="burnt — ORGANIC RHIZOME"><rect x="0" y="0" width="1200" height="248" rx="0" fill="#EFE8D8"/><rect x="12" y="12" width="1176" height="224" rx="0" fill="#F6F2E7" stroke="#CFC7B4" stroke-width="1"/><g fill="#BDB6A3" opacity="0.42"><circle cx="30" cy="30" r="1"/><circle cx="52" cy="30" r="1"/><circle cx="74" cy="30" r="1"/><circle cx="96" cy="30" r="1"/><circle cx="118" cy="30" r="1"/><circle cx="140" cy="30" r="1"/><circle cx="162" cy="30" r="1"/><circle cx="184" cy="30" r="1"/><circle cx="206" cy="30" r="1"/><circle cx="228" cy="30" r="1"/><circle cx="250" cy="30" r="1"/><circle cx="272" cy="30" r="1"/><circle cx="294" cy="30" r="1"/><circle cx="316" cy="30" r="1"/><circle cx="338" cy="30" r="1"/><circle cx="360" cy="30" r="1"/><circle cx="382" cy="30" r="1"/><circle cx="404" cy="30" r="1"/><circle cx="426" cy="30" r="1"/><circle cx="448" cy="30" r="1"/><circle cx="470" cy="30" r="1"/><circle cx="492" cy="30" r="1"/><circle cx="514" cy="30" r="1"/><circle cx="536" cy="30" r="1"/><circle cx="558" cy="30" r="1"/><circle cx="580" cy="30" r="1"/><circle cx="602" cy="30" r="1"/><circle cx="624" cy="30" r="1"/><circle cx="646" cy="30" r="1"/><circle cx="668" cy="30" r="1"/><circle cx="690" cy="30" r="1"/><circle cx="712" cy="30" r="1"/><circle cx="734" cy="30" r="1"/><circle cx="756" cy="30" r="1"/><circle cx="778" cy="30" r="1"/><circle cx="800" cy="30" r="1"/><circle cx="822" cy="30" r="1"/><circle cx="844" cy="30" r="1"/><circle cx="866" cy="30" r="1"/><circle cx="888" cy="30" r="1"/><circle cx="910" cy="30" r="1"/><circle cx="932" cy="30" r="1"/><circle cx="954" cy="30" r="1"/><circle cx="976" cy="30" r="1"/><circle cx="998" cy="30" r="1"/><circle cx="1020" cy="30" r="1"/><circle cx="1042" cy="30" r="1"/><circle cx="1064" cy="30" r="1"/><circle cx="1086" cy="30" r="1"/><circle cx="1108" cy="30" r="1"/><circle cx="1130" cy="30" r="1"/><circle cx="1152" cy="30" r="1"/><circle cx="30" cy="52" r="1"/><circle cx="52" cy="52" r="1"/><circle cx="74" cy="52" r="1"/><circle cx="96" cy="52" r="1"/><circle cx="118" cy="52" r="1"/><circle cx="140" cy="52" r="1"/><circle cx="162" cy="52" r="1"/><circle cx="184" cy="52" r="1"/><circle cx="206" cy="52" r="1"/><circle cx="228" cy="52" r="1"/><circle cx="250" cy="52" r="1"/><circle cx="272" cy="52" r="1"/><circle cx="294" cy="52" r="1"/><circle cx="316" cy="52" r="1"/><circle cx="338" cy="52" r="1"/><circle cx="360" cy="52" r="1"/><circle cx="382" cy="52" r="1"/><circle cx="404" cy="52" r="1"/><circle cx="426" cy="52" r="1"/><circle cx="448" cy="52" r="1"/><circle cx="470" cy="52" r="1"/><circle cx="492" cy="52" r="1"/><circle cx="514" cy="52" r="1"/><circle cx="536" cy="52" r="1"/><circle cx="558" cy="52" r="1"/><circle cx="580" cy="52" r="1"/><circle cx="602" cy="52" r="1"/><circle cx="624" cy="52" r="1"/><circle cx="646" cy="52" r="1"/><circle cx="668" cy="52" r="1"/><circle cx="690" cy="52" r="1"/><circle cx="712" cy="52" r="1"/><circle cx="734" cy="52" r="1"/><circle cx="756" cy="52" r="1"/><circle cx="778" cy="52" r="1"/><circle cx="800" cy="52" r="1"/><circle cx="822" cy="52" r="1"/><circle cx="844" cy="52" r="1"/><circle cx="866" cy="52" r="1"/><circle cx="888" cy="52" r="1"/><circle cx="910" cy="52" r="1"/><circle cx="932" cy="52" r="1"/><circle cx="954" cy="52" r="1"/><circle cx="976" cy="52" r="1"/><circle cx="998" cy="52" r="1"/><circle cx="1020" cy="52" r="1"/><circle cx="1042" cy="52" r="1"/><circle cx="1064" cy="52" r="1"/><circle cx="1086" cy="52" r="1"/><circle cx="1108" cy="52" r="1"/><circle cx="1130" cy="52" r="1"/><circle cx="1152" cy="52" r="1"/><circle cx="30" cy="74" r="1"/><circle cx="52" cy="74" r="1"/><circle cx="74" cy="74" r="1"/><circle cx="96" cy="74" r="1"/><circle cx="118" cy="74" r="1"/><circle cx="140" cy="74" r="1"/><circle cx="162" cy="74" r="1"/><circle cx="184" cy="74" r="1"/><circle cx="206" cy="74" r="1"/><circle cx="228" cy="74" r="1"/><circle cx="250" cy="74" r="1"/><circle cx="272" cy="74" r="1"/><circle cx="294" cy="74" r="1"/><circle cx="316" cy="74" r="1"/><circle cx="338" cy="74" r="1"/><circle cx="360" cy="74" r="1"/><circle cx="382" cy="74" r="1"/><circle cx="404" cy="74" r="1"/><circle cx="426" cy="74" r="1"/><circle cx="448" cy="74" r="1"/><circle cx="470" cy="74" r="1"/><circle cx="492" cy="74" r="1"/><circle cx="514" cy="74" r="1"/><circle cx="536" cy="74" r="1"/><circle cx="558" cy="74" r="1"/><circle cx="580" cy="74" r="1"/><circle cx="602" cy="74" r="1"/><circle cx="624" cy="74" r="1"/><circle cx="646" cy="74" r="1"/><circle cx="668" cy="74" r="1"/><circle cx="690" cy="74" r="1"/><circle cx="712" cy="74" r="1"/><circle cx="734" cy="74" r="1"/><circle cx="756" cy="74" r="1"/><circle cx="778" cy="74" r="1"/><circle cx="800" cy="74" r="1"/><circle cx="822" cy="74" r="1"/><circle cx="844" cy="74" r="1"/><circle cx="866" cy="74" r="1"/><circle cx="888" cy="74" r="1"/><circle cx="910" cy="74" r="1"/><circle cx="932" cy="74" r="1"/><circle cx="954" cy="74" r="1"/><circle cx="976" cy="74" r="1"/><circle cx="998" cy="74" r="1"/><circle cx="1020" cy="74" r="1"/><circle cx="1042" cy="74" r="1"/><circle cx="1064" cy="74" r="1"/><circle cx="1086" cy="74" r="1"/><circle cx="1108" cy="74" r="1"/><circle cx="1130" cy="74" r="1"/><circle cx="1152" cy="74" r="1"/><circle cx="30" cy="96" r="1"/><circle cx="52" cy="96" r="1"/><circle cx="74" cy="96" r="1"/><circle cx="96" cy="96" r="1"/><circle cx="118" cy="96" r="1"/><circle cx="140" cy="96" r="1"/><circle cx="162" cy="96" r="1"/><circle cx="184" cy="96" r="1"/><circle cx="206" cy="96" r="1"/><circle cx="228" cy="96" r="1"/><circle cx="250" cy="96" r="1"/><circle cx="272" cy="96" r="1"/><circle cx="294" cy="96" r="1"/><circle cx="316" cy="96" r="1"/><circle cx="338" cy="96" r="1"/><circle cx="360" cy="96" r="1"/><circle cx="382" cy="96" r="1"/><circle cx="404" cy="96" r="1"/><circle cx="426" cy="96" r="1"/><circle cx="448" cy="96" r="1"/><circle cx="470" cy="96" r="1"/><circle cx="492" cy="96" r="1"/><circle cx="514" cy="96" r="1"/><circle cx="536" cy="96" r="1"/><circle cx="558" cy="96" r="1"/><circle cx="580" cy="96" r="1"/><circle cx="602" cy="96" r="1"/><circle cx="624" cy="96" r="1"/><circle cx="646" cy="96" r="1"/><circle cx="668" cy="96" r="1"/><circle cx="690" cy="96" r="1"/><circle cx="712" cy="96" r="1"/><circle cx="734" cy="96" r="1"/><circle cx="756" cy="96" r="1"/><circle cx="778" cy="96" r="1"/><circle cx="800" cy="96" r="1"/><circle cx="822" cy="96" r="1"/><circle cx="844" cy="96" r="1"/><circle cx="866" cy="96" r="1"/><circle cx="888" cy="96" r="1"/><circle cx="910" cy="96" r="1"/><circle cx="932" cy="96" r="1"/><circle cx="954" cy="96" r="1"/><circle cx="976" cy="96" r="1"/><circle cx="998" cy="96" r="1"/><circle cx="1020" cy="96" r="1"/><circle cx="1042" cy="96" r="1"/><circle cx="1064" cy="96" r="1"/><circle cx="1086" cy="96" r="1"/><circle cx="1108" cy="96" r="1"/><circle cx="1130" cy="96" r="1"/><circle cx="1152" cy="96" r="1"/><circle cx="30" cy="118" r="1"/><circle cx="52" cy="118" r="1"/><circle cx="74" cy="118" r="1"/><circle cx="96" cy="118" r="1"/><circle cx="118" cy="118" r="1"/><circle cx="140" cy="118" r="1"/><circle cx="162" cy="118" r="1"/><circle cx="184" cy="118" r="1"/><circle cx="206" cy="118" r="1"/><circle cx="228" cy="118" r="1"/><circle cx="250" cy="118" r="1"/><circle cx="272" cy="118" r="1"/><circle cx="294" cy="118" r="1"/><circle cx="316" cy="118" r="1"/><circle cx="338" cy="118" r="1"/><circle cx="360" cy="118" r="1"/><circle cx="382" cy="118" r="1"/><circle cx="404" cy="118" r="1"/><circle cx="426" cy="118" r="1"/><circle cx="448" cy="118" r="1"/><circle cx="470" cy="118" r="1"/><circle cx="492" cy="118" r="1"/><circle cx="514" cy="118" r="1"/><circle cx="536" cy="118" r="1"/><circle cx="558" cy="118" r="1"/><circle cx="580" cy="118" r="1"/><circle cx="602" cy="118" r="1"/><circle cx="624" cy="118" r="1"/><circle cx="646" cy="118" r="1"/><circle cx="668" cy="118" r="1"/><circle cx="690" cy="118" r="1"/><circle cx="712" cy="118" r="1"/><circle cx="734" cy="118" r="1"/><circle cx="756" cy="118" r="1"/><circle cx="778" cy="118" r="1"/><circle cx="800" cy="118" r="1"/><circle cx="822" cy="118" r="1"/><circle cx="844" cy="118" r="1"/><circle cx="866" cy="118" r="1"/><circle cx="888" cy="118" r="1"/><circle cx="910" cy="118" r="1"/><circle cx="932" cy="118" r="1"/><circle cx="954" cy="118" r="1"/><circle cx="976" cy="118" r="1"/><circle cx="998" cy="118" r="1"/><circle cx="1020" cy="118" r="1"/><circle cx="1042" cy="118" r="1"/><circle cx="1064" cy="118" r="1"/><circle cx="1086" cy="118" r="1"/><circle cx="1108" cy="118" r="1"/><circle cx="1130" cy="118" r="1"/><circle cx="1152" cy="118" r="1"/><circle cx="30" cy="140" r="1"/><circle cx="52" cy="140" r="1"/><circle cx="74" cy="140" r="1"/><circle cx="96" cy="140" r="1"/><circle cx="118" cy="140" r="1"/><circle cx="140" cy="140" r="1"/><circle cx="162" cy="140" r="1"/><circle cx="184" cy="140" r="1"/><circle cx="206" cy="140" r="1"/><circle cx="228" cy="140" r="1"/><circle cx="250" cy="140" r="1"/><circle cx="272" cy="140" r="1"/><circle cx="294" cy="140" r="1"/><circle cx="316" cy="140" r="1"/><circle cx="338" cy="140" r="1"/><circle cx="360" cy="140" r="1"/><circle cx="382" cy="140" r="1"/><circle cx="404" cy="140" r="1"/><circle cx="426" cy="140" r="1"/><circle cx="448" cy="140" r="1"/><circle cx="470" cy="140" r="1"/><circle cx="492" cy="140" r="1"/><circle cx="514" cy="140" r="1"/><circle cx="536" cy="140" r="1"/><circle cx="558" cy="140" r="1"/><circle cx="580" cy="140" r="1"/><circle cx="602" cy="140" r="1"/><circle cx="624" cy="140" r="1"/><circle cx="646" cy="140" r="1"/><circle cx="668" cy="140" r="1"/><circle cx="690" cy="140" r="1"/><circle cx="712" cy="140" r="1"/><circle cx="734" cy="140" r="1"/><circle cx="756" cy="140" r="1"/><circle cx="778" cy="140" r="1"/><circle cx="800" cy="140" r="1"/><circle cx="822" cy="140" r="1"/><circle cx="844" cy="140" r="1"/><circle cx="866" cy="140" r="1"/><circle cx="888" cy="140" r="1"/><circle cx="910" cy="140" r="1"/><circle cx="932" cy="140" r="1"/><circle cx="954" cy="140" r="1"/><circle cx="976" cy="140" r="1"/><circle cx="998" cy="140" r="1"/><circle cx="1020" cy="140" r="1"/><circle cx="1042" cy="140" r="1"/><circle cx="1064" cy="140" r="1"/><circle cx="1086" cy="140" r="1"/><circle cx="1108" cy="140" r="1"/><circle cx="1130" cy="140" r="1"/><circle cx="1152" cy="140" r="1"/><circle cx="30" cy="162" r="1"/><circle cx="52" cy="162" r="1"/><circle cx="74" cy="162" r="1"/><circle cx="96" cy="162" r="1"/><circle cx="118" cy="162" r="1"/><circle cx="140" cy="162" r="1"/><circle cx="162" cy="162" r="1"/><circle cx="184" cy="162" r="1"/><circle cx="206" cy="162" r="1"/><circle cx="228" cy="162" r="1"/><circle cx="250" cy="162" r="1"/><circle cx="272" cy="162" r="1"/><circle cx="294" cy="162" r="1"/><circle cx="316" cy="162" r="1"/><circle cx="338" cy="162" r="1"/><circle cx="360" cy="162" r="1"/><circle cx="382" cy="162" r="1"/><circle cx="404" cy="162" r="1"/><circle cx="426" cy="162" r="1"/><circle cx="448" cy="162" r="1"/><circle cx="470" cy="162" r="1"/><circle cx="492" cy="162" r="1"/><circle cx="514" cy="162" r="1"/><circle cx="536" cy="162" r="1"/><circle cx="558" cy="162" r="1"/><circle cx="580" cy="162" r="1"/><circle cx="602" cy="162" r="1"/><circle cx="624" cy="162" r="1"/><circle cx="646" cy="162" r="1"/><circle cx="668" cy="162" r="1"/><circle cx="690" cy="162" r="1"/><circle cx="712" cy="162" r="1"/><circle cx="734" cy="162" r="1"/><circle cx="756" cy="162" r="1"/><circle cx="778" cy="162" r="1"/><circle cx="800" cy="162" r="1"/><circle cx="822" cy="162" r="1"/><circle cx="844" cy="162" r="1"/><circle cx="866" cy="162" r="1"/><circle cx="888" cy="162" r="1"/><circle cx="910" cy="162" r="1"/><circle cx="932" cy="162" r="1"/><circle cx="954" cy="162" r="1"/><circle cx="976" cy="162" r="1"/><circle cx="998" cy="162" r="1"/><circle cx="1020" cy="162" r="1"/><circle cx="1042" cy="162" r="1"/><circle cx="1064" cy="162" r="1"/><circle cx="1086" cy="162" r="1"/><circle cx="1108" cy="162" r="1"/><circle cx="1130" cy="162" r="1"/><circle cx="1152" cy="162" r="1"/><circle cx="30" cy="184" r="1"/><circle cx="52" cy="184" r="1"/><circle cx="74" cy="184" r="1"/><circle cx="96" cy="184" r="1"/><circle cx="118" cy="184" r="1"/><circle cx="140" cy="184" r="1"/><circle cx="162" cy="184" r="1"/><circle cx="184" cy="184" r="1"/><circle cx="206" cy="184" r="1"/><circle cx="228" cy="184" r="1"/><circle cx="250" cy="184" r="1"/><circle cx="272" cy="184" r="1"/><circle cx="294" cy="184" r="1"/><circle cx="316" cy="184" r="1"/><circle cx="338" cy="184" r="1"/><circle cx="360" cy="184" r="1"/><circle cx="382" cy="184" r="1"/><circle cx="404" cy="184" r="1"/><circle cx="426" cy="184" r="1"/><circle cx="448" cy="184" r="1"/><circle cx="470" cy="184" r="1"/><circle cx="492" cy="184" r="1"/><circle cx="514" cy="184" r="1"/><circle cx="536" cy="184" r="1"/><circle cx="558" cy="184" r="1"/><circle cx="580" cy="184" r="1"/><circle cx="602" cy="184" r="1"/><circle cx="624" cy="184" r="1"/><circle cx="646" cy="184" r="1"/><circle cx="668" cy="184" r="1"/><circle cx="690" cy="184" r="1"/><circle cx="712" cy="184" r="1"/><circle cx="734" cy="184" r="1"/><circle cx="756" cy="184" r="1"/><circle cx="778" cy="184" r="1"/><circle cx="800" cy="184" r="1"/><circle cx="822" cy="184" r="1"/><circle cx="844" cy="184" r="1"/><circle cx="866" cy="184" r="1"/><circle cx="888" cy="184" r="1"/><circle cx="910" cy="184" r="1"/><circle cx="932" cy="184" r="1"/><circle cx="954" cy="184" r="1"/><circle cx="976" cy="184" r="1"/><circle cx="998" cy="184" r="1"/><circle cx="1020" cy="184" r="1"/><circle cx="1042" cy="184" r="1"/><circle cx="1064" cy="184" r="1"/><circle cx="1086" cy="184" r="1"/><circle cx="1108" cy="184" r="1"/><circle cx="1130" cy="184" r="1"/><circle cx="1152" cy="184" r="1"/><circle cx="30" cy="206" r="1"/><circle cx="52" cy="206" r="1"/><circle cx="74" cy="206" r="1"/><circle cx="96" cy="206" r="1"/><circle cx="118" cy="206" r="1"/><circle cx="140" cy="206" r="1"/><circle cx="162" cy="206" r="1"/><circle cx="184" cy="206" r="1"/><circle cx="206" cy="206" r="1"/><circle cx="228" cy="206" r="1"/><circle cx="250" cy="206" r="1"/><circle cx="272" cy="206" r="1"/><circle cx="294" cy="206" r="1"/><circle cx="316" cy="206" r="1"/><circle cx="338" cy="206" r="1"/><circle cx="360" cy="206" r="1"/><circle cx="382" cy="206" r="1"/><circle cx="404" cy="206" r="1"/><circle cx="426" cy="206" r="1"/><circle cx="448" cy="206" r="1"/><circle cx="470" cy="206" r="1"/><circle cx="492" cy="206" r="1"/><circle cx="514" cy="206" r="1"/><circle cx="536" cy="206" r="1"/><circle cx="558" cy="206" r="1"/><circle cx="580" cy="206" r="1"/><circle cx="602" cy="206" r="1"/><circle cx="624" cy="206" r="1"/><circle cx="646" cy="206" r="1"/><circle cx="668" cy="206" r="1"/><circle cx="690" cy="206" r="1"/><circle cx="712" cy="206" r="1"/><circle cx="734" cy="206" r="1"/><circle cx="756" cy="206" r="1"/><circle cx="778" cy="206" r="1"/><circle cx="800" cy="206" r="1"/><circle cx="822" cy="206" r="1"/><circle cx="844" cy="206" r="1"/><circle cx="866" cy="206" r="1"/><circle cx="888" cy="206" r="1"/><circle cx="910" cy="206" r="1"/><circle cx="932" cy="206" r="1"/><circle cx="954" cy="206" r="1"/><circle cx="976" cy="206" r="1"/><circle cx="998" cy="206" r="1"/><circle cx="1020" cy="206" r="1"/><circle cx="1042" cy="206" r="1"/><circle cx="1064" cy="206" r="1"/><circle cx="1086" cy="206" r="1"/><circle cx="1108" cy="206" r="1"/><circle cx="1130" cy="206" r="1"/><circle cx="1152" cy="206" r="1"/></g><rect x="22" y="22" width="5" height="5" fill="#16181D" opacity="0.75"/><rect x="1173" y="22" width="5" height="5" fill="#16181D" opacity="0.75"/><rect x="22" y="221" width="5" height="5" fill="#16181D" opacity="0.75"/><rect x="1173" y="221" width="5" height="5" fill="#16181D" opacity="0.75"/><text x="38" y="40" font-family="ui-monospace,SFMono-Regular,Menlo,Consolas,'DejaVu Sans Mono',monospace" font-size="8.5" font-weight="400" fill="#8C8676" text-anchor="start" letter-spacing="2">SPEC. 02</text><line x1="38" y1="50" x2="1162" y2="50" stroke="#CFC7B4" stroke-width="1"/><g transform="translate(34,62) scale(0.80)"><path d="M60,100 C82.0,100 82.0,66 104,66" fill="none" stroke="#16181D" stroke-width="0.9" stroke-linecap="round" stroke-linejoin="round" opacity="0.5"/><path d="M60,100 C82.0,100 82.0,134 104,134" fill="none" stroke="#16181D" stroke-width="0.9" stroke-linecap="round" stroke-linejoin="round" opacity="0.5"/><path d="M104,66 C127.0,66 127.0,44 150,44" fill="none" stroke="#16181D" stroke-width="0.9" stroke-linecap="round" stroke-linejoin="round" opacity="0.5"/><path d="M104,66 C127.0,66 127.0,100 150,100" fill="none" stroke="#16181D" stroke-width="0.9" stroke-linecap="round" stroke-linejoin="round" opacity="0.5"/><path d="M104,134 C127.0,134 127.0,100 150,100" fill="none" stroke="#16181D" stroke-width="0.9" stroke-linecap="round" stroke-linejoin="round" opacity="0.5"/><path d="M104,134 C127.0,134 127.0,156 150,156" fill="none" stroke="#16181D" stroke-width="0.9" stroke-linecap="round" stroke-linejoin="round" opacity="0.5"/><path d="M150,44 C175.0,44 175.0,30 200,30" fill="none" stroke="#16181D" stroke-width="0.9" stroke-linecap="round" stroke-linejoin="round" opacity="0.5"/><path d="M150,100 C175.0,100 175.0,78 200,78" fill="none" stroke="#16181D" stroke-width="0.9" stroke-linecap="round" stroke-linejoin="round" opacity="0.5"/><path d="M150,100 C175.0,100 175.0,122 200,122" fill="none" stroke="#16181D" stroke-width="0.9" stroke-linecap="round" stroke-linejoin="round" opacity="0.5"/><path d="M150,156 C175.0,156 175.0,170 200,170" fill="none" stroke="#16181D" stroke-width="0.9" stroke-linecap="round" stroke-linejoin="round" opacity="0.5"/><path d="M200,30 C225.0,30 225.0,56 250,56" fill="none" stroke="#16181D" stroke-width="0.9" stroke-linecap="round" stroke-linejoin="round" opacity="0.5"/><path d="M200,78 C225.0,78 225.0,56 250,56" fill="none" stroke="#16181D" stroke-width="0.9" stroke-linecap="round" stroke-linejoin="round" opacity="0.5"/><path d="M200,122 C225.0,122 225.0,100 250,100" fill="none" stroke="#16181D" stroke-width="0.9" stroke-linecap="round" stroke-linejoin="round" opacity="0.5"/><path d="M200,122 C225.0,122 225.0,144 250,144" fill="none" stroke="#16181D" stroke-width="0.9" stroke-linecap="round" stroke-linejoin="round" opacity="0.5"/><path d="M200,170 C225.0,170 225.0,144 250,144" fill="none" stroke="#16181D" stroke-width="0.9" stroke-linecap="round" stroke-linejoin="round" opacity="0.5"/><path d="M250,56 C274.0,56 274.0,78 298,78" fill="none" stroke="#16181D" stroke-width="0.9" stroke-linecap="round" stroke-linejoin="round" opacity="0.5"/><path d="M250,100 C274.0,100 274.0,78 298,78" fill="none" stroke="#16181D" stroke-width="0.9" stroke-linecap="round" stroke-linejoin="round" opacity="0.5"/><path d="M250,100 C274.0,100 274.0,122 298,122" fill="none" stroke="#16181D" stroke-width="0.9" stroke-linecap="round" stroke-linejoin="round" opacity="0.5"/><path d="M250,144 C274.0,144 274.0,122 298,122" fill="none" stroke="#16181D" stroke-width="0.9" stroke-linecap="round" stroke-linejoin="round" opacity="0.5"/><path d="M298,78 C316.0,78 316.0,100 334,100" fill="none" stroke="#16181D" stroke-width="0.9" stroke-linecap="round" stroke-linejoin="round" opacity="0.5"/><path d="M298,122 C316.0,122 316.0,100 334,100" fill="none" stroke="#16181D" stroke-width="0.9" stroke-linecap="round" stroke-linejoin="round" opacity="0.5"/><circle cx="60.0" cy="100.0" r="3.6" fill="#F6F2E7" stroke="#16181D" stroke-width="1.2"/><circle cx="104.0" cy="66.0" r="3.6" fill="#F6F2E7" stroke="#16181D" stroke-width="1.2"/><circle cx="104.0" cy="134.0" r="3.6" fill="#F6F2E7" stroke="#16181D" stroke-width="1.2"/><circle cx="150.0" cy="44.0" r="3.6" fill="#F6F2E7" stroke="#16181D" stroke-width="1.2"/><circle cx="150.0" cy="100.0" r="3.6" fill="#F6F2E7" stroke="#16181D" stroke-width="1.2"/><circle cx="150.0" cy="156.0" r="3.6" fill="#F6F2E7" stroke="#16181D" stroke-width="1.2"/><circle cx="200.0" cy="30.0" r="3.6" fill="#F6F2E7" stroke="#16181D" stroke-width="1.2"/><circle cx="200.0" cy="78.0" r="10" fill="none" stroke="#DF3B22" stroke-width="1" opacity="0.5"/><circle cx="200.0" cy="78.0" r="4.6" fill="#DF3B22"/><circle cx="200.0" cy="122.0" r="3.6" fill="#F6F2E7" stroke="#16181D" stroke-width="1.2"/><circle cx="200.0" cy="170.0" r="3.6" fill="#F6F2E7" stroke="#16181D" stroke-width="1.2"/><circle cx="250.0" cy="56.0" r="3.6" fill="#F6F2E7" stroke="#16181D" stroke-width="1.2"/><circle cx="250.0" cy="100.0" r="10" fill="none" stroke="#DF3B22" stroke-width="1" opacity="0.5"/><circle cx="250.0" cy="100.0" r="4.6" fill="#DF3B22"/><circle cx="250.0" cy="144.0" r="3.6" fill="#F6F2E7" stroke="#16181D" stroke-width="1.2"/><circle cx="298.0" cy="78.0" r="3.6" fill="#F6F2E7" stroke="#16181D" stroke-width="1.2"/><circle cx="298.0" cy="122.0" r="10" fill="none" stroke="#DF3B22" stroke-width="1" opacity="0.5"/><circle cx="298.0" cy="122.0" r="4.6" fill="#DF3B22"/><circle cx="334.0" cy="100.0" r="3.6" fill="#F6F2E7" stroke="#16181D" stroke-width="1.2"/><circle cx="60.0" cy="100.0" r="6" fill="#2E8B4E"/></g><line x1="360" y1="66" x2="360" y2="208" stroke="#BDB6A3" stroke-width="1" opacity="0.6"/><text x="600" y="106" font-family="ui-monospace,SFMono-Regular,Menlo,Consolas,'DejaVu Sans Mono',monospace" font-size="8.5" font-weight="400" fill="#16181D" text-anchor="middle" letter-spacing="1.7">ORGANIC RHIZOME</text><text x="600" y="150" font-family="'Helvetica Neue',Helvetica,Arial,sans-serif" font-size="30" font-weight="700" fill="#16181D" text-anchor="middle" letter-spacing="-0.4">burnt</text><text x="600" y="178" font-family="ui-monospace,SFMono-Regular,Menlo,Consolas,'DejaVu Sans Mono',monospace" font-size="11" font-weight="400" fill="#8C8676" text-anchor="middle">Databricks and Spark pipelines,</text><text x="600" y="195" font-family="ui-monospace,SFMono-Regular,Menlo,Consolas,'DejaVu Sans Mono',monospace" font-size="11" font-weight="400" fill="#8C8676" text-anchor="middle">read as one graph and linted.</text><circle cx="573.0" cy="218.0" r="5.5" fill="#2E8B4E"/><circle cx="573.0" cy="218.0" r="1.87" fill="#F6F2E7"/><circle cx="591.0" cy="218.0" r="5.5" fill="#DF3B22"/><circle cx="591.0" cy="218.0" r="1.87" fill="#F6F2E7"/><circle cx="609.0" cy="218.0" r="5.5" fill="none" stroke="#2E8B4E" stroke-width="1.4"/><circle cx="627.0" cy="218.0" r="5.5" fill="none" stroke="#16181D" stroke-width="1.4"/><line x1="840" y1="66" x2="840" y2="208" stroke="#BDB6A3" stroke-width="1" opacity="0.6"/><circle cx="1156.0" cy="40.0" r="5.5" fill="#2E8B4E"/><text x="866" y="96" font-family="ui-monospace,SFMono-Regular,Menlo,Consolas,'DejaVu Sans Mono',monospace" font-size="9.5" font-weight="400" fill="#8C8676" text-anchor="start" letter-spacing="0.8">engine</text><text x="1162" y="96" font-family="ui-monospace,SFMono-Regular,Menlo,Consolas,'DejaVu Sans Mono',monospace" font-size="11" font-weight="400" fill="#16181D" text-anchor="end">Rust + Python</text><line x1="866" y1="102" x2="1162" y2="102" stroke="#BDB6A3" stroke-width="1" stroke-dasharray="1 4" opacity="0.75"/><text x="866" y="122" font-family="ui-monospace,SFMono-Regular,Menlo,Consolas,'DejaVu Sans Mono',monospace" font-size="9.5" font-weight="400" fill="#8C8676" text-anchor="start" letter-spacing="0.8">rules</text><text x="1162" y="122" font-family="ui-monospace,SFMono-Regular,Menlo,Consolas,'DejaVu Sans Mono',monospace" font-size="11" font-weight="400" fill="#16181D" text-anchor="end">110</text><line x1="866" y1="128" x2="1162" y2="128" stroke="#BDB6A3" stroke-width="1" stroke-dasharray="1 4" opacity="0.75"/><text x="866" y="148" font-family="ui-monospace,SFMono-Regular,Menlo,Consolas,'DejaVu Sans Mono',monospace" font-size="9.5" font-weight="400" fill="#8C8676" text-anchor="start" letter-spacing="0.8">output</text><text x="1162" y="148" font-family="ui-monospace,SFMono-Regular,Menlo,Consolas,'DejaVu Sans Mono',monospace" font-size="11" font-weight="400" fill="#16181D" text-anchor="end">SARIF</text><line x1="866" y1="154" x2="1162" y2="154" stroke="#BDB6A3" stroke-width="1" stroke-dasharray="1 4" opacity="0.75"/><text x="866" y="222" font-family="ui-monospace,SFMono-Regular,Menlo,Consolas,'DejaVu Sans Mono',monospace" font-size="8.5" font-weight="400" fill="#BDB6A3" text-anchor="start" letter-spacing="0.6">github.com/RelativelyUnknown</text></svg>
